<svg width="341" height="280" viewBox="0 0 341 280" fill="none" xmlns="http://www.w3.org/2000/svg">
<g clip-path="url(#clip0_344_1463)">
<path d="M46.3494 90.6182C36.6988 96.6387 38.9344 104.707 31.5747 109.344C24.2261 113.981 12.2846 114.092 5.75492 126.941C-0.77472 139.79 3.88457 154.963 16.6118 162.964C29.3391 170.966 43.7265 169.549 50.6324 160.175C55.9114 153.004 55.9004 141.959 59.8403 136.503C63.7802 131.047 70.5201 125.535 74.4269 117.357C78.3336 109.189 72.147 87.2205 72.147 87.2205C72.147 87.2205 56.5423 84.2545 46.3605 90.6071L46.3494 90.6182Z" fill="#2B1706"/>
<path d="M281.383 47.5447L283.132 76.8506C283.132 76.8506 279.037 87.5858 263.986 86.5787C254.9 85.97 255.132 78.7873 255.132 78.7873L254.711 59.9953L281.383 47.5447Z" fill="#F0A38F"/>
<path d="M254.756 63.8688L254.911 68.6941C254.911 68.6941 265.889 70.9739 270.847 61.6C276.16 51.551 254.767 63.8688 254.767 63.8688H254.756Z" fill="#D47B77"/>
<path d="M280.443 49.7692C280.443 49.7692 271.467 68.9818 257.036 65.7613C237.347 61.3565 244.441 25.5763 244.441 25.5763L272.651 19.5889L280.753 39.5984L280.443 49.7802V49.7692Z" fill="#F0A38F"/>
<path d="M264.13 53.5763C264.76 54.517 263.632 56.2435 262.237 57.1953C260.843 58.147 258.729 58.3462 258.33 57.2395C257.965 56.2324 259.315 54.5945 260.765 53.853C262.204 53.1115 263.864 53.1889 264.141 53.5873L264.13 53.5763Z" fill="#AA4636"/>
<path d="M243.102 14.0996C243.102 14.0996 234.757 13.6569 234.757 19.5779C234.757 24.8569 242.704 28.3874 254.933 26.6166C267.151 24.8458 270.98 22.3004 270.98 22.3004C270.98 22.3004 269.42 28.332 273.072 33.434C276.735 38.536 283.719 41.8119 283.719 41.8119C283.719 41.8119 288.5 20.0538 285.39 14.2877C281.926 7.84664 270.161 9.36284 270.161 9.36284C270.161 9.36284 269.331 4.53754 264.462 4.53754C259.47 4.53754 259.238 9.34071 259.238 9.34071C259.238 9.34071 254.966 -1.69328 246.19 1.32806C237.635 4.27193 243.102 14.1107 243.102 14.1107V14.0996Z" fill="#2B1706"/>
<path d="M279.07 38.547C276.071 40.9929 275.451 44.9328 277.698 47.3676C279.945 49.7913 284.205 49.7802 287.205 47.3344C290.204 44.8885 290.824 40.9486 288.577 38.5138C286.33 36.0901 282.07 36.1012 279.07 38.547Z" fill="#F0A38F"/>
<path d="M285.091 43.3723C284.593 43.2949 284.095 43.2063 283.608 43.1731C283.121 43.1399 282.645 43.1399 282.202 43.2285C281.76 43.3059 281.339 43.4609 280.952 43.6601C280.553 43.8482 280.188 44.0806 279.834 44.3241C279.723 44.4016 279.535 44.3794 279.425 44.2688C279.336 44.1802 279.325 44.0696 279.38 43.981C279.745 43.3723 280.188 42.819 280.708 42.3209C280.963 42.0775 281.24 41.8451 281.538 41.6126C281.693 41.502 281.837 41.4024 281.992 41.3028L282.468 41.015C283.121 40.6498 283.851 40.3731 284.648 40.2514C285.434 40.1296 286.308 40.185 287.083 40.4838C286.275 40.3178 285.489 40.3621 284.77 40.5391C284.051 40.7273 283.398 41.0372 282.8 41.4024L282.368 41.6901C282.225 41.7897 282.092 41.9004 281.959 42.0111C281.693 42.2213 281.428 42.4538 281.184 42.6972C280.697 43.1731 280.255 43.6933 279.9 44.2577L279.447 43.9146C279.834 43.6711 280.232 43.4498 280.664 43.2617C281.107 43.0846 281.583 42.9407 282.081 42.8854C282.59 42.83 283.11 42.8743 283.608 42.9628C284.117 43.0514 284.604 43.2063 285.08 43.3723H285.091Z" fill="#1E2633"/>
<path d="M243.489 32.7146C243.379 34.253 250.296 34.253 250.495 31.9842C250.694 29.7154 243.666 30.313 243.489 32.7146Z" fill="#1E2633"/>
<path d="M257.677 31.785C257.578 34.2198 268.402 35.6474 268.523 33.4893C268.645 31.3423 257.777 29.3502 257.677 31.785Z" fill="#1E2633"/>
<path d="M245.36 37.0751C245.481 36.5549 245.78 36.0791 246.212 35.7028C246.632 35.3265 247.219 35.0609 247.839 35.0166C248.447 34.9723 249.045 35.1383 249.554 35.3929C250.063 35.6474 250.495 36.0016 250.849 36.4111C250.34 36.1897 249.853 35.9684 249.355 35.8134C248.857 35.6585 248.37 35.57 247.883 35.6032C247.407 35.6364 246.942 35.7913 246.522 36.0569C246.101 36.3225 245.725 36.6767 245.371 37.0751H245.36Z" fill="#1E2633"/>
<path d="M249.488 38.702C249.488 39.864 248.746 40.8158 247.839 40.8158C246.931 40.8158 246.19 39.8751 246.19 38.702C246.19 37.5399 246.931 36.5881 247.839 36.5881C248.746 36.5881 249.488 37.5289 249.488 38.702Z" fill="#1E2633"/>
<path d="M258.585 37.9494C258.862 37.3186 259.36 36.7763 259.991 36.4C260.621 36.0126 261.407 35.8245 262.171 35.8909C262.934 35.9352 263.654 36.2119 264.274 36.566C264.893 36.9312 265.436 37.385 265.889 37.9051C265.27 37.562 264.672 37.23 264.041 36.9644C263.421 36.7099 262.768 36.5107 262.126 36.4664C261.474 36.4221 260.832 36.5217 260.223 36.7984C259.625 37.064 259.072 37.4624 258.585 37.9494Z" fill="#1E2633"/>
<path d="M262.979 39.687C262.979 40.9265 262.193 41.9336 261.23 41.9336C260.256 41.9336 259.47 40.9265 259.47 39.687C259.47 38.4474 260.256 37.4403 261.219 37.4403C262.193 37.4403 262.979 38.4474 262.979 39.687Z" fill="#1E2633"/>
<path d="M253.439 38.4696C252.952 39.853 252.476 41.2253 252.033 42.6087C251.823 43.3059 251.602 43.9921 251.436 44.6893C251.258 45.3866 251.092 46.0838 251.015 46.781C250.971 47.1241 250.949 47.4783 250.971 47.8103C250.982 47.9763 251.004 48.1423 251.048 48.2862C251.059 48.3636 251.104 48.43 251.126 48.4964C251.148 48.5628 251.214 48.6292 251.247 48.7067C251.602 49.2601 252.188 49.7028 252.786 50.0901C253.406 50.4664 254.058 50.7984 254.745 51.0972C255.42 51.396 256.128 51.6506 256.836 51.9051C256.084 51.7834 255.353 51.5953 254.623 51.3628C253.904 51.1304 253.195 50.8427 252.52 50.4775C251.856 50.1122 251.203 49.6585 250.749 49.0055C250.694 48.917 250.628 48.8506 250.583 48.751C250.539 48.6514 250.484 48.5518 250.473 48.4522C250.406 48.253 250.384 48.0648 250.362 47.8656C250.329 47.4783 250.362 47.102 250.395 46.7368C250.594 45.2648 251.048 43.8593 251.568 42.487C252.1 41.1146 252.708 39.7755 253.417 38.4806L253.439 38.4696Z" fill="#1E2633"/>
<path d="M256.15 57.1289C257.124 57.0846 258.065 56.9186 258.95 56.6308C259.172 56.5534 259.393 56.487 259.614 56.3984C259.824 56.3099 260.046 56.2213 260.256 56.1217C260.455 56.0111 260.666 55.9115 260.865 55.8119L261.44 55.4466L261.584 55.3581L261.717 55.2585L261.983 55.0482L262.248 54.8379C262.337 54.7715 262.414 54.683 262.492 54.6055L262.99 54.1407C263.134 53.9636 263.277 53.7976 263.432 53.6205L263.654 53.366L263.853 53.0893L264.251 52.536C264.506 52.1597 264.716 51.7502 264.982 51.3628C264.838 51.7945 264.694 52.2372 264.506 52.6577L264.174 53.2775L264.008 53.5873L263.798 53.8751C263.665 54.0632 263.521 54.2624 263.377 54.4506L262.879 54.9707C262.791 55.0593 262.713 55.1478 262.624 55.2253L262.337 55.4577L262.049 55.6901L261.905 55.8008L261.75 55.9004C260.942 56.4538 260.013 56.8411 259.05 57.0624C258.087 57.2838 257.08 57.3281 256.128 57.151L256.15 57.1289Z" fill="#1E2633"/>
<path d="M327.976 279.347H219.363C219.794 256.316 221.311 213.298 221.255 187.157C221.222 173.91 218.732 138.462 218.975 126.432C219.219 114.402 220.625 90.253 220.625 90.253L255.121 78.7874C256.04 92.5439 275.839 93.8498 283.121 76.8506L327.445 92.5549L316.256 140.454C316.256 140.454 313.81 182.609 314.773 190.422C315.736 198.247 317.961 208.76 322.653 226.944C325.254 237.037 327.987 268.413 327.987 279.347H327.976Z" fill="#E1F4FF"/>
<path d="M308.73 214.283L306.406 214.637L306.904 210.874C306.926 210.675 307.181 210.642 307.258 210.819L308.73 214.283Z" fill="#FFE9DC"/>
<path d="M309.903 222.993L307.579 223.347L306.406 214.637L308.73 214.283L309.903 222.993Z" fill="#FF737A"/>
<path d="M307.712 211.87L307.27 210.819C307.192 210.642 306.938 210.675 306.915 210.874L306.76 212.014L307.712 211.87Z" fill="#FF737A"/>
<path d="M315.415 220.193C315.26 220.193 315.127 220.082 315.127 219.927L314.806 213.951L313.666 214.106C313.511 214.128 313.368 214.017 313.345 213.862C313.323 213.708 313.434 213.564 313.589 213.542L315.039 213.342C315.116 213.331 315.194 213.353 315.26 213.409C315.326 213.464 315.36 213.53 315.36 213.608L315.703 219.894C315.703 220.049 315.592 220.182 315.437 220.193H315.415Z" fill="#1D2633"/>
<path d="M312.914 212.977L311.608 213.154L311.298 210.83C311.254 210.465 311.497 210.144 311.862 210.089C312.228 210.044 312.549 210.288 312.604 210.653L312.914 212.977Z" fill="#1D2633"/>
<path d="M313.631 212.919L310.878 213.29L312.175 222.898L314.928 222.526L313.631 212.919Z" fill="#6699FF"/>
<path d="M283.132 76.8506C280.332 86.9992 268.955 137.012 259.183 167.934C255.73 134.267 255.132 78.7984 255.132 78.7874C258.762 88.4711 272.74 86.5787 283.132 76.8506Z" fill="#4E86F9"/>
<path d="M301.902 256.172C297.586 256.172 293.834 252.919 293.325 248.525L290.635 225.317C290.635 225.228 290.691 225.151 290.779 225.14L319.134 221.853C319.134 221.853 319.222 221.853 319.255 221.886C319.288 221.908 319.311 221.953 319.311 221.997L322 245.205C322.266 247.496 321.624 249.753 320.185 251.557C318.757 253.361 316.699 254.512 314.408 254.778L302.898 256.117C302.566 256.161 302.223 256.172 301.902 256.172ZM290.979 225.439L293.646 248.481C293.9 250.683 295.007 252.664 296.745 254.047C298.482 255.431 300.662 256.051 302.865 255.796L314.375 254.457C316.577 254.202 318.558 253.096 319.941 251.358C321.325 249.621 321.945 247.44 321.69 245.238L319.023 222.196L290.979 225.45V225.439Z" fill="#1E2633"/>
<path d="M294.941 230.806C294.863 230.806 294.797 230.751 294.786 230.662C294.786 230.574 294.841 230.496 294.93 230.485L315.692 228.084C315.78 228.084 315.858 228.139 315.869 228.228C315.869 228.316 315.813 228.394 315.725 228.405L294.963 230.806C294.963 230.806 294.952 230.806 294.941 230.806Z" fill="#1E2633"/>
<path d="M257.666 173.954C257.589 173.954 257.511 173.899 257.478 173.821L240.302 124.938C240.28 124.871 240.291 124.805 240.324 124.76L248.348 113.782L239.682 98.7526C239.638 98.6862 239.649 98.5976 239.693 98.5312L253.428 80.2372C253.494 80.1486 253.616 80.1375 253.704 80.1929C253.793 80.2593 253.804 80.381 253.749 80.4696L240.092 98.653L248.757 113.682C248.802 113.749 248.79 113.837 248.746 113.892L240.7 124.893L257.843 173.677C257.877 173.777 257.821 173.888 257.722 173.932C257.7 173.932 257.677 173.943 257.655 173.943L257.666 173.954Z" fill="#1E2633"/>
<path d="M260.765 173.954C260.765 173.954 260.699 173.954 260.666 173.932C260.566 173.877 260.533 173.755 260.588 173.666L288.057 125.225L280.454 113.815C280.409 113.749 280.409 113.649 280.465 113.583L292.672 98.5866L284.482 79.3407C284.438 79.2411 284.482 79.1304 284.582 79.0862C284.681 79.0419 284.792 79.0862 284.836 79.1858L293.07 98.5423C293.104 98.6087 293.092 98.6862 293.037 98.7415L280.852 113.715L288.444 125.104C288.489 125.17 288.489 125.247 288.444 125.314L260.92 173.855C260.887 173.921 260.821 173.954 260.754 173.954H260.765Z" fill="#1E2633"/>
<path d="M259.481 275.274C259.371 275.274 259.282 275.186 259.282 275.086L257.478 197.184C257.478 197.074 257.567 196.985 257.666 196.985C257.777 196.985 257.866 197.074 257.866 197.173L259.67 275.075C259.67 275.186 259.581 275.274 259.481 275.274Z" fill="#1E2633"/>
<path d="M264.882 215.666C263.122 215.666 261.684 214.239 261.684 212.468C261.684 210.697 263.111 209.281 264.882 209.281C266.653 209.281 268.07 210.708 268.07 212.468C268.07 214.228 266.642 215.666 264.882 215.666ZM264.882 209.679C263.344 209.679 262.082 210.93 262.082 212.479C262.082 214.028 263.333 215.279 264.882 215.279C266.432 215.279 267.682 214.028 267.682 212.479C267.682 210.93 266.432 209.679 264.882 209.679Z" fill="#1E2633"/>
<path d="M265.458 239.317C263.698 239.317 262.27 237.889 262.27 236.119C262.27 234.348 263.698 232.931 265.458 232.931C267.217 232.931 268.656 234.359 268.656 236.119C268.656 237.878 267.228 239.317 265.458 239.317ZM265.458 233.319C263.919 233.319 262.658 234.569 262.658 236.119C262.658 237.668 263.908 238.919 265.458 238.919C267.007 238.919 268.258 237.668 268.258 236.119C268.258 234.569 267.007 233.319 265.458 233.319Z" fill="#1E2633"/>
<path d="M265.458 262.315C263.698 262.315 262.27 260.887 262.27 259.116C262.27 257.345 263.698 255.929 265.458 255.929C267.217 255.929 268.656 257.357 268.656 259.116C268.656 260.876 267.228 262.315 265.458 262.315ZM265.458 256.316C263.919 256.316 262.658 257.567 262.658 259.116C262.658 260.666 263.908 261.916 265.458 261.916C267.007 261.916 268.258 260.666 268.258 259.116C268.258 257.567 267.007 256.316 265.458 256.316Z" fill="#1E2633"/>
<path d="M230.463 226.999C230.463 226.999 230.397 226.955 230.353 226.944L220.647 226.49C220.647 226.601 220.647 226.7 220.647 226.811L230.187 227.254L229.113 250.428C229.013 252.653 228.051 254.7 226.402 256.194C224.764 257.689 222.628 258.463 220.414 258.353L219.772 258.319C219.772 258.43 219.772 258.53 219.772 258.64L220.403 258.674C222.705 258.784 224.919 257.987 226.623 256.427C228.327 254.866 229.323 252.753 229.434 250.44L230.519 227.11C230.519 227.11 230.507 227.021 230.474 226.999H230.463Z" fill="#1E2633"/>
<path d="M226.103 232.699C226.103 232.787 226.025 232.854 225.937 232.854L220.492 232.599C220.492 232.489 220.492 232.389 220.492 232.278L225.948 232.533C226.036 232.533 226.103 232.61 226.103 232.699Z" fill="#1E2633"/>
<path d="M280.907 161.083C280.819 161.105 280.73 161.083 280.653 161.039L278.318 159.633C278.229 159.578 278.163 159.489 278.152 159.39L276.879 152.871C276.835 152.672 276.968 152.484 277.167 152.44C277.366 152.395 277.554 152.528 277.598 152.727L278.838 159.091L281.029 160.419C281.206 160.519 281.262 160.751 281.151 160.917C281.096 161.006 281.007 161.072 280.907 161.083Z" fill="#6699FF"/>
<path d="M295.97 161.205C295.804 161.238 295.638 161.16 295.572 161.006C295.483 160.817 295.572 160.607 295.749 160.519L298.56 159.191L299.124 152.882C299.146 152.683 299.323 152.528 299.523 152.55C299.722 152.572 299.877 152.749 299.855 152.949L299.268 159.467C299.257 159.6 299.179 159.711 299.058 159.766L296.059 161.194C296.059 161.194 296.003 161.216 295.97 161.227V161.205Z" fill="#99CCFF"/>
<path d="M299.622 153.624C299.622 153.624 299.523 153.635 299.467 153.635C299.058 153.635 298.748 153.292 298.748 152.882C298.748 152.694 299.135 133.891 292.274 127.848C290.558 126.343 288.588 125.779 286.231 126.133C283.641 126.52 281.572 127.815 280.077 129.951C274.887 137.399 277.975 152.794 278.008 152.949C278.085 153.347 277.831 153.734 277.432 153.812C277.034 153.889 276.658 153.635 276.569 153.236C276.436 152.583 273.315 137.067 278.871 129.099C280.598 126.609 282.999 125.126 285.998 124.661C288.765 124.24 291.2 124.938 293.236 126.719C300.607 133.216 300.231 152.085 300.209 152.893C300.209 153.247 299.943 153.535 299.622 153.591V153.624Z" fill="#1E2633"/>
<path d="M284.028 162.013C283.763 162.776 282.767 163.13 281.804 162.798C280.841 162.466 280.266 161.581 280.531 160.817C280.797 160.054 281.793 159.7 282.756 160.032C283.719 160.364 284.294 161.249 284.028 162.013Z" fill="#1E2633"/>
<path d="M296.446 160.795C296.656 161.581 296.025 162.422 295.029 162.688C294.044 162.953 293.07 162.533 292.86 161.747C292.65 160.961 293.281 160.12 294.277 159.855C295.262 159.589 296.236 160.009 296.446 160.795Z" fill="#1E2633"/>
<path d="M287.703 125.845C287.625 125.856 287.559 125.867 287.481 125.845C287.083 125.801 286.795 125.436 286.84 125.026C286.873 124.716 290.459 93.4403 282.999 77.2269C282.833 76.8617 282.999 76.419 283.353 76.253C283.719 76.087 284.161 76.253 284.327 76.6071C287.537 83.5794 289.186 93.883 289.208 107.23C289.23 117.135 288.3 125.115 288.289 125.192C288.256 125.513 288.002 125.768 287.703 125.823V125.845Z" fill="#1E2633"/>
<path d="M291.853 127.848C291.521 127.915 291.156 127.859 290.835 127.682C287.493 125.757 284.117 127.472 283.973 127.549C283.254 127.926 282.368 127.649 281.992 126.93C281.616 126.221 281.881 125.336 282.59 124.96C282.789 124.849 287.526 122.381 292.296 125.148C292.993 125.557 293.236 126.454 292.827 127.151C292.606 127.527 292.24 127.782 291.842 127.859L291.853 127.848Z" fill="#6699FF"/>
<path d="M242.405 145.135C242.051 145.235 241.674 145.058 241.53 144.715C241.387 144.383 238.166 136.204 241.165 111.812C243.622 91.8577 253.616 79.064 253.715 78.9423C253.959 78.6324 254.601 77.9684 254.911 78.2118C255.221 78.4553 255.176 78.7984 254.933 79.1083C254.833 79.23 245.006 92.4553 242.604 111.989C239.671 135.883 242.836 144.084 242.87 144.161C243.025 144.526 242.847 144.958 242.471 145.102C242.449 145.102 242.416 145.124 242.394 145.124L242.405 145.135Z" fill="#1E2633"/>
<path d="M247.241 139.015C248.171 142.247 246.3 145.622 243.069 146.552C239.837 147.481 236.462 145.611 235.532 142.379C234.602 139.148 236.473 135.772 239.704 134.843C242.936 133.913 246.311 135.783 247.241 139.015Z" fill="#1E2633"/>
<path d="M245.426 139.535C246.068 141.771 244.773 144.106 242.538 144.748C240.302 145.39 237.967 144.095 237.325 141.859C236.683 139.624 237.978 137.289 240.213 136.647C242.449 136.005 244.784 137.3 245.426 139.535Z" fill="#6699FF"/>
<path d="M166.949 110.783L168.199 119.537L179.997 111.579L177.396 105.526L166.949 110.783Z" fill="#F0A38F"/>
<path d="M220.636 90.253C220.636 90.253 213.696 92.1454 208.251 104.507C202.806 116.881 193.543 137.089 193.543 137.089L184.036 107.75L160.928 121.451C160.928 121.451 169.848 170.822 189.172 177.551C208.506 184.28 220.702 149.285 220.702 149.285L220.636 90.2419V90.253Z" fill="#E1F4FF"/>
<path d="M327.456 92.5549C327.456 92.5549 340.659 98.5312 340.405 114.689C340.15 130.858 314.817 184.346 303.717 190.168C292.617 196 228.416 212.457 228.416 212.457L220.702 181.469L281.405 163.308C281.405 163.308 307.801 97.9779 327.467 92.5549H327.456Z" fill="#E1F4FF"/>
<path d="M236.838 206.005C236.76 206.005 236.683 205.949 236.661 205.872L230.485 183.328C230.463 183.228 230.519 183.129 230.607 183.107C230.707 183.085 230.806 183.14 230.828 183.228L237.004 205.772C237.026 205.872 236.971 205.972 236.882 205.994C236.871 205.994 236.849 205.994 236.838 205.994V206.005Z" fill="#1E2633"/>
<path d="M230.662 205.031C229.334 205.031 228.25 203.946 228.25 202.618C228.25 201.29 229.334 200.206 230.662 200.206C231.99 200.206 233.075 201.29 233.075 202.618C233.075 203.946 231.99 205.031 230.662 205.031ZM230.662 200.571C229.534 200.571 228.615 201.489 228.615 202.618C228.615 203.747 229.534 204.666 230.662 204.666C231.791 204.666 232.71 203.747 232.71 202.618C232.71 201.489 231.791 200.571 230.662 200.571Z" fill="#1E2633"/>
<path d="M167.59 129.254C167.59 129.254 167.502 129.221 167.48 129.187C167.425 129.11 167.436 128.999 167.513 128.944L184.557 116.449C184.634 116.394 184.745 116.405 184.8 116.482C184.855 116.56 184.844 116.67 184.767 116.726L167.723 129.221C167.723 129.221 167.635 129.254 167.59 129.254Z" fill="#1E2633"/>
<path d="M167.369 125.281C166.03 125.07 165.1 123.798 165.322 122.458C165.532 121.119 166.805 120.19 168.144 120.411C169.483 120.621 170.413 121.894 170.191 123.233C169.981 124.572 168.708 125.502 167.369 125.281ZM168.089 120.754C166.938 120.577 165.842 121.363 165.665 122.514C165.488 123.665 166.274 124.76 167.425 124.938C168.575 125.115 169.671 124.329 169.848 123.178C170.025 122.027 169.24 120.931 168.089 120.754Z" fill="#1E2633"/>
<path d="M171.63 73.785L179.388 62.264C179.388 62.264 180.893 62.7842 180.971 65.0087C181.048 67.2332 176.411 76.0095 176.411 76.0095L171.641 73.785H171.63Z" fill="#67CCCD"/>
<path d="M186.228 77.6364C186.228 77.6364 183.538 85.483 182.044 91.8909C180.594 98.1217 178.879 99.1067 178.259 100.811C177.728 102.272 178.226 103.644 178.226 103.644C178.226 103.644 179.521 102.892 179.964 104.109C180.362 105.194 179.001 105.836 179.001 105.836L166.318 112.52C166.318 112.52 164.525 113.594 164.06 112.188C163.595 110.783 165.023 109.964 165.023 109.964C165.023 109.964 165.432 107.341 163.861 105.548C162.289 103.755 158.515 98.0332 157.984 91.1273C157.442 84.2324 157.541 79.2411 159.5 77.736C160.629 76.8727 162.245 77.4482 162.245 77.4482C162.245 77.4482 163.208 76.0316 164.525 75.8324C165.842 75.6332 166.251 76.0648 166.251 76.0648C166.251 76.0648 168.409 73.2427 169.848 73.0103C171.287 72.7779 178.514 76.8506 178.514 76.8506C178.514 76.8506 178.846 77.9462 177.828 78.5549C176.809 79.1636 175.537 78.9202 175.537 78.9202L178.724 83.668C178.724 83.668 180.24 79.2632 181.889 77.9573C183.538 76.6514 186.217 77.6364 186.217 77.6364H186.228Z" fill="#67CCCD"/>
<path opacity="0.3" d="M181.037 62.8063V62.2972H174.032V62.8063C174.032 63.415 173.711 63.9794 173.19 64.3115C172.637 64.6545 172.261 65.2743 172.261 65.9826V80.4696C172.261 81.034 172.715 81.4988 173.29 81.4988H181.779C182.343 81.4988 182.808 81.0451 182.808 80.4696V65.9826C182.808 65.2743 182.443 64.6656 181.878 64.3115C181.358 63.9905 181.037 63.4261 181.037 62.8063Z" fill="#ADC1F2"/>
<path d="M182.797 66.8237V80.4585C182.797 81.0229 182.343 81.4877 181.768 81.4877H173.279C172.715 81.4877 172.25 81.034 172.25 80.4585V66.8237H182.786H182.797Z" fill="#C7F2B1"/>
<path d="M181.723 59.7186H173.345C173.107 59.7186 172.914 59.9118 172.914 60.1502V61.8103C172.914 62.0486 173.107 62.2419 173.345 62.2419H181.723C181.962 62.2419 182.155 62.0486 182.155 61.8103V60.1502C182.155 59.9118 181.962 59.7186 181.723 59.7186Z" fill="white"/>
<path d="M181.723 62.3304H173.334C173.047 62.3304 172.814 62.098 172.814 61.7992V60.1391C172.814 59.8514 173.047 59.6079 173.334 59.6079H181.723C182.011 59.6079 182.243 59.8403 182.243 60.1391V61.7992C182.243 62.0869 182.011 62.3304 181.723 62.3304ZM173.345 59.8071C173.157 59.8071 173.013 59.951 173.013 60.1391V61.7992C173.013 61.9873 173.168 62.1312 173.345 62.1312H181.734C181.923 62.1312 182.066 61.9873 182.066 61.7992V60.1391C182.066 59.951 181.911 59.8071 181.734 59.8071H173.345Z" fill="#7D92BE"/>
<path d="M181.779 81.5763H173.29C172.67 81.5763 172.172 81.0783 172.172 80.4585V65.9715C172.172 65.2522 172.538 64.5992 173.146 64.2229C173.644 63.913 173.943 63.3818 173.943 62.8063V62.1976H181.148V62.8063C181.148 63.3818 181.447 63.913 181.945 64.2229C182.553 64.5992 182.919 65.2632 182.919 65.9715V80.4585C182.919 81.0783 182.421 81.5763 181.801 81.5763H181.779ZM174.12 62.3858V62.7953C174.12 63.4371 173.788 64.0348 173.235 64.3779C172.681 64.7209 172.36 65.3186 172.36 65.9715V80.4585C172.36 80.9676 172.781 81.3881 173.29 81.3881H181.779C182.288 81.3881 182.708 80.9676 182.708 80.4585V65.9715C182.708 65.3186 182.376 64.732 181.834 64.3779C181.281 64.0348 180.949 63.4371 180.949 62.7953V62.3858H174.131H174.12Z" fill="#7D92BE"/>
<path d="M182.797 59.7186V61.3233H172.261V59.7186C172.261 59.453 172.482 59.2316 172.748 59.2316H182.321C182.586 59.2316 182.808 59.453 182.808 59.7186H182.797Z" fill="#5872C5"/>
<path d="M180.926 68.5723H174.131V74.7036H180.926V68.5723Z" fill="#5872C5"/>
<path d="M181.922 75.9984C181.922 75.9984 181.823 75.9541 181.823 75.8988V67.5209C181.823 67.5209 181.867 67.4213 181.922 67.4213C181.978 67.4213 182.022 67.4656 182.022 67.5209V75.8988C182.022 75.8988 181.978 75.9984 181.922 75.9984Z" fill="white"/>
<path d="M169.859 73.0213C171.298 72.7889 178.525 76.8616 178.525 76.8616C178.525 76.8616 178.857 77.9573 177.839 78.566C176.821 79.1747 175.548 78.9312 175.548 78.9312C175.548 78.9312 168.421 73.2537 169.859 73.0213Z" fill="#67CCCD"/>
<path d="M196.144 143.962L193.443 137.322C193.41 137.233 193.443 137.134 193.543 137.1C193.632 137.067 193.731 137.1 193.764 137.2L196.465 143.84C196.498 143.929 196.465 144.028 196.365 144.062C196.277 144.095 196.177 144.062 196.144 143.962Z" fill="#1E2633"/>
<path d="M221.421 184.402L216.408 186.117L218.334 199.42L224.985 198.7L221.421 184.402Z" fill="#F0A38F"/>
<path d="M42.9407 194.694C42.9407 194.694 28.1328 220.193 26.2182 235.432C24.3146 250.683 29.6711 279.336 29.6711 279.336H113.904C113.904 279.336 111.989 250.926 109.488 234.459C107.573 221.831 104.762 208.373 100.236 194.683H42.9407V194.694Z" fill="#3B4858"/>
<path d="M32.8032 275.85C32.7036 275.85 32.615 275.772 32.5929 275.673C32.5486 275.418 28.6419 249.864 30.0917 236.384C31.6854 221.554 44.8111 200.194 44.9439 199.973C44.9992 199.874 45.132 199.84 45.2316 199.907C45.3312 199.962 45.3644 200.095 45.298 200.194C45.1652 200.405 32.0949 221.698 30.5122 236.428C29.0624 249.864 32.9692 275.352 33.0134 275.617C33.0356 275.728 32.9581 275.839 32.8364 275.85C32.8364 275.85 32.8142 275.85 32.8032 275.85Z" fill="#1E2633"/>
<path d="M10.215 161.891C10.215 161.891 0.852142 182.675 0.852142 187.345C0.852142 192.016 19.4782 227.564 25.7976 230.009C29.5051 231.437 34.5407 228.416 35.9905 229.832C37.4403 231.249 40.4284 235.842 42.9407 236.318C44.7889 236.672 45.4419 235.72 45.4419 235.72L41.2806 229.821C41.2806 229.821 46.0838 235.532 49.6806 235.643C51.1525 235.687 52.1375 234.979 52.1375 234.979L50.4221 233.108C50.4221 233.108 51.9936 233.916 53.4877 233.628C54.5944 233.407 55.2031 232.666 55.2031 232.666L46.3715 223.081C46.3715 223.081 52.3699 228.161 55.2031 228.427C56.9075 228.582 57.9478 227.464 57.9478 227.464C57.9478 227.464 49.3154 219.108 47.0577 218.632C44.8 218.157 39.1668 218.201 39.1668 218.201C39.1668 218.201 43.2284 217.57 44.3351 216.164C45.2648 214.98 45.143 213.232 45.143 213.232L29.2948 216.95C29.2948 216.95 20.0759 190.422 19.9431 188.983C19.8102 187.545 28.7193 169.804 28.7193 169.804L10.2371 161.902L10.215 161.891Z" fill="#F0A38F"/>
<path d="M108.968 119.36C117.191 122.071 133.039 154.332 133.039 154.332L113.162 177.153L102.748 161.083L98.4316 133.946L108.979 119.36H108.968Z" fill="#F9C937"/>
<path d="M0.841095 175.216L25.8087 187.235L39.8087 164.392L29.4166 119.935C22.7099 124.307 0.841095 175.216 0.841095 175.216Z" fill="#F9C937"/>
<path d="M29.4166 119.935L56.6862 110.528L91.9352 112.874L108.979 119.371L103.545 132.685C103.545 132.685 111.535 147.172 109.51 162.289C107.485 177.407 104.806 194.827 99.2617 196.531C93.7281 198.236 83.0261 199.663 73.6743 199.586C65.0308 199.519 46.3494 197.793 42.9407 194.705C40.9375 192.89 36.6435 167.502 33.4229 146.806C31.1541 132.209 29.4166 119.935 29.4166 119.935Z" fill="#F9C937"/>
<path d="M69.834 88.3826C69.834 88.3826 54.4506 65.9494 73.1763 50.0127C87.8735 37.5178 119.349 47.0688 112.653 73.2206C107.75 92.4111 69.8229 88.3715 69.8229 88.3715L69.834 88.3826Z" fill="#2B1706"/>
<path d="M72.4569 80.7462L63.7027 108.071L56.6751 110.517C56.6751 110.517 57.4719 115.243 67.4656 117.932C72.5565 119.304 79.9383 140.675 83.679 140.52C86.5897 140.409 85.5715 119.249 87.9842 118.319C93.3628 116.261 91.9241 112.863 91.9241 112.863L87.6632 111.048L87.9842 101.995L72.4569 80.7462Z" fill="#F0A38F"/>
<path d="M87.9952 102.006L87.785 107.817C87.785 107.817 77.5589 107.418 75.7549 95.6427C74.117 84.9628 87.9952 102.006 87.9952 102.006Z" fill="#D47B77"/>
<path d="M72.8664 76.8617C72.8664 76.8617 69.8229 94.2925 79.0419 100.723C88.2608 107.141 101.94 102.847 109.709 83.2585C117.478 63.6585 108.115 49.2822 92.3446 48.8617C76.585 48.4411 73.3201 71.5494 72.8553 76.8727L72.8664 76.8617Z" fill="#F0A38F"/>
<path d="M87.8182 68.0854C87.5747 70.0885 95.9636 72.0142 96.2071 70.2545C96.4506 68.4838 88.0617 66.0822 87.8182 68.0854Z" fill="#1E2633"/>
<path d="M103.146 72.9992C102.637 74.7368 109.012 77.0055 109.477 75.4783C109.941 73.951 103.655 71.2617 103.146 72.9992Z" fill="#1E2633"/>
<path d="M85.9367 89.5115C87.5636 87.9842 92.6767 92.2672 91.1826 93.7502C88.1945 96.7273 83.6126 91.6917 85.9367 89.5115Z" fill="#D47B77"/>
<path d="M81.8087 48.8506C91.7359 42.9296 107.175 50.1455 111.081 57.4387C114.988 64.732 112.188 74.7368 112.188 74.7368C112.188 74.7368 113.549 67.1336 105.714 61.6885C95.4656 54.5613 84.985 59.3091 84.985 59.3091C84.985 59.3091 82.4948 70.2103 75.6111 73.132C67.532 76.5518 71.8703 54.7715 81.7976 48.8506H81.8087Z" fill="#2B1706"/>
<path d="M74.6997 80.4066C77.646 79.3886 79.0766 75.7909 77.895 72.3708C76.7134 68.9507 73.367 67.0034 70.4206 68.0214C67.4743 69.0393 66.0437 72.6371 67.2253 76.0572C68.407 79.4772 71.7533 81.4245 74.6997 80.4066Z" fill="#F0A38F"/>
<path d="M98.2103 79.0751C98.0221 79.8166 97.8783 80.547 97.7786 81.2885C97.679 82.03 97.6458 82.7605 97.6901 83.4909C97.7454 84.2213 97.8672 84.9407 98.1217 85.6047C98.3652 86.2798 98.7415 86.8885 99.2284 87.4087L99.5051 87.6964L99.151 87.8514C98.819 87.9952 98.4869 88.1281 98.1549 88.2609C97.8229 88.3937 97.4909 88.5265 97.1478 88.6593C96.4727 88.9249 95.7976 89.1684 95.1115 89.3897C95.7312 89.0134 96.362 88.6703 97.0039 88.3273C97.3249 88.1613 97.6458 87.9953 97.9668 87.8292C98.2877 87.6632 98.6087 87.5083 98.9296 87.3423L98.8522 87.785C98.2656 87.2427 97.834 86.5454 97.5462 85.8039C97.2695 85.0624 97.1367 84.2767 97.1367 83.4909C97.1257 82.7162 97.2253 81.9415 97.4134 81.2C97.6016 80.4585 97.8672 79.7391 98.2103 79.064V79.0751Z" fill="#1E2633"/>
<path d="M87.1763 75.9652C87.464 75.4451 87.8735 75.0024 88.3383 74.615C88.8032 74.2387 89.3344 73.9178 89.932 73.7296C90.5296 73.5526 91.1937 73.5194 91.7913 73.7075C92.4 73.8846 92.9091 74.283 93.2521 74.7589C92.732 74.4711 92.2118 74.2498 91.6806 74.1834C91.1494 74.1059 90.6182 74.1834 90.1091 74.3273C89.5889 74.4822 89.0909 74.7257 88.615 75.0134C88.1281 75.3012 87.6632 75.6221 87.1763 75.9763V75.9652Z" fill="#1E2633"/>
<path d="M92.8648 77.2933C92.5992 78.4443 91.7803 79.23 91.0277 79.053C90.2862 78.8759 89.8878 77.8134 90.1534 76.6624C90.419 75.5115 91.238 74.7257 91.9905 74.9028C92.732 75.0798 93.1305 76.1423 92.8648 77.2933Z" fill="#1E2633"/>
<path d="M100.512 78.9201C100.844 78.4775 101.265 78.1233 101.741 77.8356C102.217 77.5478 102.748 77.3265 103.312 77.249C103.877 77.1605 104.496 77.2269 105.017 77.4925C105.548 77.736 105.946 78.1787 106.19 78.6656C105.747 78.3447 105.304 78.068 104.84 77.9462C104.375 77.8024 103.888 77.8024 103.401 77.8688C102.914 77.9352 102.427 78.0901 101.951 78.2783C101.475 78.4664 100.999 78.6877 100.512 78.9312V78.9201Z" fill="#1E2633"/>
<path d="M105.614 80.9122C105.338 82.0522 104.519 82.8269 103.777 82.6498C103.036 82.4727 102.659 81.4103 102.925 80.2703C103.202 79.1304 104.021 78.3557 104.762 78.5328C105.504 78.7099 105.88 79.7723 105.614 80.9122Z" fill="#1E2633"/>
<path d="M85.815 87.5747C85.8925 88.4269 86.1138 89.2459 86.468 89.9984C86.8221 90.7399 87.3201 91.415 87.951 91.9241C88.5818 92.4443 89.3233 92.8205 90.1091 93.0862C90.8948 93.3518 91.736 93.5067 92.5881 93.6285C91.736 93.717 90.8616 93.6617 90.0095 93.4624L89.6885 93.385L89.3786 93.2743C89.1684 93.2079 88.9692 93.1083 88.77 93.0308C88.3715 92.8316 87.9952 92.5992 87.6522 92.3115C86.966 91.736 86.4348 90.9834 86.136 90.1534C85.8261 89.3233 85.7154 88.4379 85.8371 87.5858L85.815 87.5747Z" fill="#1E2633"/>
<path d="M71.3834 74.3273C71.8482 74.3605 72.313 74.4047 72.7779 74.5043C73.2427 74.6039 73.6854 74.77 74.0949 75.0024C74.5043 75.2458 74.8474 75.5557 75.1462 75.8877C75.434 76.2308 75.6885 76.585 75.9099 76.9502L75.3233 77.1162C75.2458 76.4743 75.0798 75.8435 74.8696 75.2237C74.7589 74.9138 74.6371 74.615 74.4933 74.3162C74.4158 74.1723 74.3494 74.0174 74.2719 73.8735L74.0285 73.4419C73.6854 72.8775 73.2648 72.3462 72.7447 71.9036C72.2245 71.4609 71.5937 71.1178 70.8522 70.9518C71.6158 70.9518 72.3684 71.2395 72.9881 71.649C73.6079 72.0585 74.117 72.6008 74.5154 73.1763L74.8032 73.619C74.8917 73.7739 74.9692 73.9289 75.0577 74.0727C75.2127 74.3826 75.3455 74.7036 75.4672 75.0245C75.7107 75.6775 75.8545 76.3526 75.9209 77.0387C75.932 77.1937 75.8103 77.3265 75.6332 77.3486C75.5004 77.3597 75.3786 77.3043 75.3233 77.2047C75.1241 76.8506 74.9138 76.4964 74.6704 76.1755C74.4269 75.8545 74.1391 75.5557 73.8071 75.3123C73.1431 74.8032 72.2577 74.5597 71.3723 74.3162L71.3834 74.3273Z" fill="#1E2633"/>
<path d="M121.972 228.217L120.677 279.347H181.192L178.669 226.136L121.972 228.217Z" fill="#1E2633"/>
<path d="M145.168 275.85C145.069 275.85 144.98 275.772 144.958 275.673L141.306 248.481L138.772 246.776C138.672 246.71 138.65 246.588 138.716 246.489C138.783 246.389 138.904 246.367 139.004 246.433L141.616 248.193C141.616 248.193 141.693 248.281 141.704 248.337L145.368 275.628C145.379 275.739 145.301 275.85 145.19 275.861C145.19 275.861 145.168 275.861 145.157 275.861L145.168 275.85Z" fill="#1E2633"/>
<path d="M178.602 272.231C178.492 272.231 178.403 272.142 178.392 272.032L175.736 233.13C175.736 233.02 175.813 232.92 175.924 232.909C176.035 232.909 176.134 232.987 176.145 233.097L178.802 271.998C178.802 272.109 178.724 272.209 178.613 272.22C178.613 272.22 178.613 272.22 178.602 272.22V272.231Z" fill="#1E2633"/>
<path d="M170.723 245.459C165.764 245.459 162.721 243.478 160.961 241.619C158.637 239.173 157.995 236.484 157.973 236.373C157.951 236.262 158.017 236.152 158.128 236.119C158.239 236.096 158.349 236.163 158.383 236.273C158.383 236.296 159.024 238.974 161.282 241.342C164.259 244.463 168.719 245.636 174.164 244.74C174.275 244.718 174.386 244.795 174.408 244.906C174.43 245.017 174.353 245.127 174.242 245.149C172.98 245.36 171.818 245.448 170.745 245.448L170.723 245.459Z" fill="#1E2633"/>
<path d="M147.127 137.089C147.127 137.089 161.979 117.368 154.022 104.275C148.5 95.1779 139.369 100.778 139.369 100.778C131.666 103.013 119.205 102.106 117.755 112.919C115.564 129.287 140.664 144.062 147.116 137.089H147.127Z" fill="#442C0C"/>
<path d="M111.126 185.818C111.126 185.818 108.138 200.017 108.37 203.249C108.591 206.315 126.033 196.908 126.033 196.908L123.322 188.308L111.126 185.818Z" fill="#F0A38F"/>
<path d="M130.538 153.701C130.538 153.701 118.906 159.312 117.235 161.57C114.058 165.875 106.787 190.466 106.787 190.466L122.126 195.159L120.765 229.843C140.874 237.535 163.839 234.713 181.491 228.206L174.485 154.609L154.022 148.422L130.538 153.712V153.701Z" fill="#FF6039"/>
<path d="M171.973 239.184C171.973 239.184 183.406 209.579 183.317 201.523C183.228 193.466 180.871 171.818 180.871 171.818C180.871 171.818 174.806 169.959 170.545 172.427C166.285 174.895 163.662 180.052 163.662 180.052L169.273 202.054L163.02 239.992C163.296 244.563 163.894 254.545 163.894 254.545L165.643 263.532C165.643 263.532 167.126 263.532 167.734 262.304C168.454 260.865 167.657 255.077 167.657 255.077L172.04 264.672C172.04 264.672 173.025 264.738 173.6 264.096C174.319 263.3 174.109 262.68 174.109 262.68C174.109 262.68 175.548 263.211 175.924 261.285C176.267 259.537 174.209 252.144 174.209 252.144L178.093 257.932C178.093 257.932 179.322 257.589 179.233 256.183C179.145 254.778 176.19 250.24 176.19 250.24L171.951 239.184H171.973Z" fill="#F0A38F"/>
<path d="M154.033 148.411C154.033 148.411 146.939 158.051 137.255 158.183C129.652 158.294 130.549 153.701 130.549 153.701L133.515 151.466L133.238 139.834L144.139 126.277C144.139 126.277 148.71 143.088 150.713 147.282L154.044 148.411H154.033Z" fill="#F0A38F"/>
<path d="M140.122 134.964C140.122 134.964 139.9 143.077 133.371 145.866L133.238 141.627H133.426L140.122 134.953V134.964Z" fill="#D47B77"/>
<path d="M115.807 113.007C115.807 113.007 109.543 143.896 127.317 144.681C140.808 145.279 144.46 126.266 144.46 126.266C146.718 120.577 143.896 103.047 131.855 103.246C119.813 103.456 116.294 110.539 115.818 113.007H115.807Z" fill="#F0A38F"/>
<path d="M130.593 134.632C132.364 135.839 129.154 140.509 126.033 137.632C123.953 135.706 129.198 133.692 130.593 134.632Z" fill="#D47B77"/>
<path d="M146.851 121.872C145.677 126.044 142.014 122.149 139.579 116.847C137.565 112.443 138.03 109.344 138.03 109.344C138.03 109.344 128.933 112.952 119.349 113.328C112.742 113.594 105.659 110.085 108.602 104.264C111.557 98.4427 121.949 94.7241 131.091 95.8972C144.139 97.5684 146.762 104.707 148.278 109.587C149.96 115.021 146.84 121.872 146.84 121.872H146.851Z" fill="#442C0C"/>
<path d="M116.427 122.658C116.67 122.204 117.025 121.828 117.456 121.529C117.888 121.241 118.43 121.02 119.028 121.086C119.625 121.142 120.145 121.529 120.433 121.972C120.743 122.414 120.898 122.912 120.953 123.421C120.643 123.012 120.367 122.613 120.046 122.304C119.725 121.983 119.36 121.783 118.961 121.739C118.563 121.695 118.131 121.806 117.711 121.983C117.279 122.16 116.87 122.403 116.427 122.658Z" fill="#1E2633"/>
<path d="M120.511 124.041C120.334 125.004 119.681 125.69 119.039 125.568C118.397 125.458 118.021 124.583 118.198 123.621C118.375 122.658 119.028 121.972 119.67 122.093C120.311 122.204 120.688 123.078 120.511 124.041Z" fill="#1E2633"/>
<path d="M127.35 122.403C127.671 121.927 128.114 121.54 128.612 121.241C129.11 120.953 129.719 120.743 130.349 120.787C130.67 120.809 130.98 120.898 131.257 121.053C131.534 121.208 131.777 121.418 131.965 121.651C132.341 122.126 132.563 122.68 132.64 123.244C132.308 122.779 131.976 122.348 131.589 122.005C131.202 121.662 130.759 121.474 130.294 121.44C129.818 121.407 129.32 121.518 128.822 121.695C128.324 121.883 127.837 122.126 127.339 122.392L127.35 122.403Z" fill="#1E2633"/>
<path d="M132.043 124.063C131.855 125.115 131.135 125.856 130.438 125.734C129.741 125.613 129.32 124.65 129.508 123.609C129.696 122.558 130.416 121.817 131.113 121.938C131.81 122.06 132.231 123.023 132.043 124.063Z" fill="#1E2633"/>
<path d="M123.377 124.639C123.388 125.236 123.377 125.845 123.333 126.443C123.277 127.04 123.178 127.649 123.001 128.247C122.835 128.844 122.569 129.409 122.259 129.94C121.938 130.471 121.562 130.958 121.141 131.401L121.119 131.013C121.518 131.39 121.905 131.777 122.281 132.175C122.658 132.574 123.034 132.972 123.388 133.404C122.923 133.105 122.481 132.773 122.049 132.441C121.606 132.109 121.186 131.766 120.765 131.423L120.566 131.257L120.743 131.036C121.108 130.582 121.451 130.117 121.739 129.619C122.038 129.132 122.27 128.601 122.481 128.059C122.68 127.516 122.835 126.952 122.968 126.376C123.1 125.801 123.233 125.214 123.388 124.628L123.377 124.639Z" fill="#1E2633"/>
<path d="M127.062 115.951C126.852 117.766 134.345 119.415 134.555 117.81C134.765 116.206 127.273 114.136 127.062 115.951Z" fill="#1E2633"/>
<path d="M113.472 117.622C114.07 119.349 121.54 117.567 121.031 116.028C120.522 114.501 112.874 115.896 113.472 117.622Z" fill="#1E2633"/>
<path d="M150.079 126.85C151.794 124.44 151.502 121.288 149.425 119.81C147.348 118.332 144.274 119.088 142.559 121.498C140.844 123.908 141.136 127.06 143.213 128.538C145.29 130.016 148.364 129.26 150.079 126.85Z" fill="#F0A38F"/>
<path d="M147.802 124.24C147.481 124.096 147.138 124.052 146.806 124.052C146.474 124.052 146.153 124.119 145.843 124.24C145.545 124.351 145.257 124.517 145.013 124.738C144.77 124.949 144.56 125.203 144.383 125.48C144.294 125.613 144.128 125.657 143.995 125.568C143.885 125.502 143.84 125.358 143.874 125.247C144.006 124.716 144.172 124.196 144.416 123.709C144.538 123.466 144.67 123.222 144.814 123.001C144.969 122.779 145.146 122.558 145.334 122.359C145.722 121.972 146.209 121.662 146.729 121.54C147.249 121.418 147.791 121.462 148.267 121.628C147.758 121.628 147.26 121.695 146.828 121.883C146.386 122.071 146.009 122.37 145.7 122.735C145.545 122.912 145.401 123.111 145.279 123.322C145.146 123.532 145.036 123.753 144.936 123.975C144.737 124.428 144.549 124.904 144.416 125.391L143.907 125.148C144.128 124.838 144.394 124.55 144.704 124.329C145.013 124.107 145.357 123.941 145.722 123.864C146.087 123.787 146.452 123.764 146.806 123.831C147.16 123.886 147.504 124.03 147.78 124.262L147.802 124.24Z" fill="#1E2633"/>
<path d="M181.502 171.874C181.502 171.874 183.173 170.379 183.107 167.734C183.051 165.366 181.502 165.377 181.502 165.377C181.502 165.377 182.387 163.064 181.502 161.459C180.606 159.821 178.912 160.386 178.912 160.386L174.496 154.587C174.496 154.587 164.126 166.96 162.721 174.286C161.836 178.923 163.905 180.993 163.905 180.993L181.513 171.862L181.502 171.874Z" fill="#FF6039"/>
<path d="M163.894 181.214C163.894 181.214 163.839 181.214 163.817 181.203C163.728 181.17 161.747 180.329 161.26 178.58C160.784 176.876 161.238 175.105 161.26 175.028C161.293 174.917 161.404 174.851 161.515 174.884C161.625 174.917 161.692 175.028 161.659 175.138C161.659 175.16 161.216 176.865 161.659 178.47C162.09 180.019 163.96 180.816 163.972 180.816C164.082 180.86 164.126 180.982 164.082 181.092C164.049 181.17 163.972 181.225 163.894 181.225V181.214Z" fill="#1E2633"/>
<path d="M165.82 174.009C165.82 174.009 165.72 173.987 165.676 173.954C165.587 173.877 165.587 173.744 165.665 173.655C169.439 169.527 174.375 166.871 180.318 165.764C180.428 165.742 180.539 165.82 180.561 165.93C180.583 166.041 180.506 166.152 180.395 166.174C174.53 167.27 169.682 169.881 165.975 173.943C165.93 173.987 165.875 174.009 165.82 174.009Z" fill="#1E2633"/>
<path d="M163.296 170.822C163.296 170.822 163.197 170.811 163.164 170.778C163.075 170.7 163.064 170.568 163.141 170.479C166.085 166.971 171.73 162.5 176.068 161.105C176.179 161.072 176.289 161.127 176.334 161.238C176.367 161.349 176.311 161.459 176.201 161.504C171.929 162.876 166.373 167.281 163.462 170.745C163.418 170.789 163.363 170.822 163.307 170.822H163.296Z" fill="#1E2633"/>
<path d="M158.161 149.606C158.161 149.606 159.689 140.531 162.079 140.531C164.47 140.531 163.319 148.466 163.319 148.466C163.319 148.466 166.285 145.124 167.613 145.5C168.952 145.888 169.04 147.415 169.04 147.415C169.04 147.415 171.055 145.888 172.194 146.264C173.334 146.651 173.146 149.031 173.146 149.031C173.146 149.031 175.437 147.791 176.3 148.455C177.164 149.119 177.064 151.222 177.064 151.222C177.064 151.222 178.458 150.525 179.455 151.222C181.369 152.561 178.027 162.787 175.924 161.825C173.821 160.873 175.149 157.431 175.149 157.431C175.149 157.431 172.925 161.448 171.586 160.253C170.247 159.058 171.232 154.952 171.232 154.952C171.232 154.952 169.129 159.633 167.79 158.681C166.451 157.73 167.402 153.236 167.402 153.236C167.402 153.236 165.587 158.681 163.96 156.966C162.334 155.251 163.197 151.211 163.197 151.211L158.128 149.606H158.161Z" fill="#F0A38F"/>
<path d="M124.617 137.621C125.358 137.598 126.077 137.488 126.764 137.311C127.45 137.123 128.103 136.835 128.678 136.436C129.254 136.038 129.741 135.529 130.139 134.942C130.526 134.356 130.836 133.692 131.102 132.994C131.047 133.736 130.847 134.477 130.493 135.153C130.139 135.828 129.619 136.425 128.977 136.868C128.335 137.3 127.605 137.587 126.852 137.709C126.1 137.831 125.336 137.82 124.617 137.621Z" fill="#1E2633"/>
<path d="M167.347 153.613C167.38 153.07 167.469 152.528 167.579 152.008C167.69 151.477 167.812 150.957 167.956 150.436C168.1 149.916 168.255 149.407 168.443 148.898C168.62 148.389 168.819 147.891 169.074 147.404C169.04 147.946 168.952 148.489 168.841 149.009C168.73 149.54 168.609 150.06 168.465 150.58C168.321 151.1 168.166 151.609 167.978 152.119C167.801 152.628 167.602 153.126 167.358 153.613H167.347Z" fill="#D47B77"/>
<path d="M171.176 155.107C171.243 154.564 171.353 154.044 171.475 153.524C171.608 153.004 171.752 152.495 171.918 151.986C172.084 151.477 172.272 150.979 172.471 150.481C172.67 149.983 172.892 149.496 173.157 149.02C173.091 149.562 172.98 150.082 172.858 150.602C172.726 151.123 172.582 151.632 172.416 152.141C172.25 152.65 172.062 153.148 171.862 153.646C171.663 154.144 171.442 154.631 171.176 155.107Z" fill="#D47B77"/>
<path d="M175.172 157.431C175.227 156.877 175.326 156.346 175.448 155.815C175.57 155.284 175.714 154.764 175.869 154.243C176.024 153.723 176.201 153.214 176.4 152.705C176.599 152.196 176.809 151.698 177.075 151.211C177.02 151.764 176.92 152.296 176.798 152.827C176.677 153.358 176.533 153.878 176.378 154.398C176.223 154.919 176.035 155.428 175.847 155.937C175.647 156.446 175.437 156.944 175.172 157.431Z" fill="#D47B77"/>
<path d="M42.5312 219.64C42.2988 220.403 41.8561 221.067 41.3913 221.698C40.9154 222.329 40.3842 222.904 39.8087 223.436C39.532 223.712 39.2221 223.956 38.9233 224.21C38.6245 224.454 38.3035 224.697 37.9937 224.919C37.6727 225.14 37.3518 225.361 37.0197 225.56C36.6767 225.76 36.3447 225.959 35.9905 226.125C36.2561 225.826 36.5328 225.56 36.8095 225.284C37.0862 225.018 37.3628 224.742 37.6506 224.487C37.9273 224.221 38.215 223.956 38.4917 223.701C38.7684 223.436 39.0561 223.181 39.3328 222.915C39.8972 222.395 40.4395 221.864 40.9818 221.322C41.5241 220.779 42.0553 220.237 42.5423 219.617L42.5312 219.64Z" fill="#D47B77"/>
<path d="M50.4111 233.119C49.8024 232.632 49.2601 232.101 48.7178 231.548C48.1865 230.994 47.6775 230.43 47.1794 229.855C46.6814 229.268 46.2055 228.67 45.7518 228.062C45.298 227.442 44.8664 226.811 44.479 226.136C45.0877 226.623 45.63 227.154 46.1723 227.708C46.7035 228.261 47.2126 228.825 47.7107 229.401C48.2087 229.987 48.6846 230.585 49.1383 231.194C49.5921 231.813 50.0237 232.444 50.4111 233.119Z" fill="#D47B77"/>
<path d="M43.5826 232.223C43.162 231.968 42.7858 231.67 42.4316 231.36C42.0775 231.05 41.7454 230.707 41.4356 230.364C41.1257 230.021 40.8269 229.655 40.5502 229.268C40.2735 228.881 40.019 228.482 39.8087 228.04C40.2292 228.294 40.6055 228.593 40.9597 228.903C41.3138 229.213 41.6458 229.556 41.9557 229.899C42.2656 230.253 42.5644 230.618 42.8411 230.994C43.1178 231.382 43.3723 231.78 43.5826 232.223Z" fill="#D47B77"/>
<path d="M50.245 226.003C49.8355 225.87 49.4703 225.693 49.1051 225.494C48.751 225.295 48.4079 225.074 48.0869 224.83C47.766 224.587 47.4561 224.321 47.1573 224.044C46.8695 223.757 46.5818 223.458 46.3494 223.092C46.7589 223.214 47.1241 223.402 47.4893 223.602C47.8435 223.801 48.1865 224.022 48.5075 224.266C48.8284 224.509 49.1383 224.775 49.4371 225.051C49.7249 225.339 50.0126 225.638 50.245 226.003Z" fill="#D47B77"/>
<path d="M113.726 198.8L147.415 176.256C147.415 176.256 157.73 167.015 158.825 166.838C159.921 166.661 168.93 166.008 168.93 166.008C168.93 166.008 169.483 167.236 167.314 168.133C165.145 169.04 162.455 169.007 162.455 169.007L171.995 170.114C171.995 170.114 171.995 171.42 171.287 171.907C170.723 172.305 170.058 172.206 170.058 172.206C170.058 172.206 170.944 173.434 170.003 174.043C169.24 174.53 168.421 174.43 168.421 174.43C168.421 174.43 168.896 175.647 167.568 176.223C166.296 176.776 162.201 175.625 161.017 176.843C159.843 178.06 158.117 180.417 155.217 181.413C152.318 182.409 151.145 182.321 151.145 182.321C151.145 182.321 129.232 210.93 119.813 212.379C110.395 213.829 108.226 205.772 108.403 202.784C108.58 199.796 113.749 198.8 113.749 198.8H113.726Z" fill="#F0A38F"/>
<path d="M163.042 240.003L159.644 253.096C159.644 253.096 160.906 253.472 161.625 252.719C162.345 251.956 163.573 248.912 163.573 248.912L163.042 240.003Z" fill="#F0A38F"/>
<path d="M170.036 172.217C169.394 172.217 168.764 172.172 168.122 172.106C167.801 172.084 167.491 172.04 167.17 172.006L166.229 171.885C165.598 171.796 164.979 171.696 164.348 171.575C163.728 171.453 163.097 171.32 162.489 171.143C163.13 171.143 163.761 171.187 164.403 171.254C165.034 171.309 165.665 171.387 166.296 171.475L167.236 171.619C167.546 171.674 167.867 171.719 168.177 171.785C168.797 171.907 169.428 172.04 170.036 172.217Z" fill="#D47B77"/>
<path d="M168.387 174.43C167.801 174.43 167.214 174.375 166.628 174.308C166.34 174.286 166.041 174.242 165.753 174.209L164.89 174.076C164.315 173.987 163.739 173.877 163.164 173.755C162.588 173.633 162.024 173.5 161.459 173.312C162.046 173.312 162.632 173.368 163.219 173.434C163.806 173.5 164.381 173.578 164.957 173.666L165.82 173.821C166.108 173.877 166.395 173.932 166.683 173.998C167.259 174.12 167.823 174.253 168.387 174.441V174.43Z" fill="#D47B77"/>
<path d="M38.2703 176.079C38.1707 176.079 38.0822 176.013 38.0601 175.902L34.7067 156.313C34.6846 156.202 34.762 156.092 34.8727 156.07C34.9834 156.047 35.0941 156.125 35.1162 156.236L38.4695 175.824C38.4917 175.935 38.4142 176.046 38.3035 176.068C38.2925 176.068 38.2814 176.068 38.2703 176.068V176.079Z" fill="#1E2633"/>
<path d="M108.37 170.512C108.37 170.512 108.337 170.512 108.326 170.512C108.215 170.49 108.149 170.368 108.171 170.258C108.193 170.147 110.904 158.726 109.322 152.119C109.3 152.008 109.366 151.897 109.477 151.864C109.587 151.842 109.698 151.908 109.731 152.019C111.336 158.726 108.602 170.236 108.58 170.346C108.558 170.446 108.47 170.501 108.381 170.501L108.37 170.512Z" fill="#1E2633"/>
<path d="M67.9636 195.38H67.9415C62.9059 194.727 58.5676 193.466 55.0371 191.64C52.2039 190.179 49.8909 188.342 48.1423 186.194C45.1652 182.531 44.9107 179.255 44.8996 179.123C44.8996 179.012 44.9771 178.912 45.0877 178.901C45.1984 178.901 45.298 178.979 45.3091 179.089C45.3091 179.123 45.5636 182.387 48.4743 185.951C51.1636 189.249 56.7304 193.488 67.9857 194.949C68.0964 194.96 68.185 195.07 68.1628 195.181C68.1518 195.281 68.0632 195.358 67.9525 195.358L67.9636 195.38Z" fill="#1E2633"/>
<path d="M70.8632 192.602C70.8632 192.602 70.8632 192.602 70.8521 192.602C65.1857 192.16 61.0245 189.979 58.5233 188.242C55.8118 186.349 54.4616 184.59 54.4063 184.512C54.3399 184.424 54.351 184.291 54.4506 184.225C54.5391 184.158 54.6719 184.169 54.7383 184.269C54.7937 184.335 60.2387 191.363 70.8853 192.193C70.996 192.193 71.0846 192.304 71.0735 192.414C71.0735 192.525 70.9739 192.602 70.8632 192.602Z" fill="#1E2633"/>
<path d="M123.388 191.651C123.388 191.651 123.388 191.651 123.377 191.651C123.266 191.651 123.178 191.54 123.178 191.429L124.417 172.206C124.417 172.095 124.528 172.006 124.639 172.006C124.749 172.006 124.838 172.117 124.838 172.228L123.598 191.451C123.598 191.562 123.499 191.651 123.388 191.651Z" fill="#1E2633"/>
<path d="M144.15 228.239C144.039 228.239 143.951 228.161 143.94 228.051C143.94 227.94 144.017 227.84 144.128 227.829C144.172 227.829 148.356 227.42 152.971 225.461C157.209 223.657 162.688 220.115 164.735 213.519C164.768 213.409 164.89 213.353 165.001 213.387C165.111 213.42 165.167 213.542 165.134 213.652C163.042 220.403 157.453 224.022 153.126 225.859C148.455 227.851 144.217 228.25 144.172 228.261C144.172 228.261 144.161 228.261 144.15 228.261V228.239Z" fill="#1E2633"/>
<path d="M142.269 226.346C142.169 226.346 142.081 226.28 142.07 226.169C142.047 226.059 142.125 225.948 142.236 225.926C142.335 225.904 151.787 224.177 154.343 217.825C154.387 217.714 154.509 217.67 154.609 217.714C154.719 217.758 154.764 217.88 154.719 217.979C153.336 221.421 150.027 223.502 147.493 224.653C144.759 225.893 142.324 226.324 142.291 226.335C142.28 226.335 142.269 226.335 142.258 226.335L142.269 226.346Z" fill="#1E2633"/>
<path d="M170.357 254.003C170.756 254.689 171.11 255.398 171.453 256.106C171.63 256.46 171.785 256.814 171.962 257.179L172.449 258.264L172.914 259.349C173.058 259.714 173.213 260.079 173.357 260.444C173.644 261.175 173.921 261.916 174.153 262.68C173.755 261.994 173.401 261.285 173.058 260.577C172.881 260.223 172.726 259.869 172.549 259.504L172.062 258.419L171.597 257.334C171.453 256.969 171.298 256.604 171.154 256.239C170.866 255.508 170.59 254.767 170.357 254.003Z" fill="#D47B77"/>
<path d="M167.679 255.088C168.044 255.685 168.376 256.294 168.697 256.914C168.863 257.224 169.007 257.534 169.162 257.843L169.605 258.784L170.025 259.736C170.158 260.057 170.302 260.378 170.424 260.699C170.689 261.341 170.933 261.994 171.143 262.669C170.778 262.071 170.446 261.462 170.125 260.843C169.959 260.533 169.815 260.223 169.66 259.913L169.217 258.972L168.797 258.021C168.664 257.7 168.52 257.379 168.398 257.058C168.133 256.416 167.889 255.763 167.679 255.088Z" fill="#D47B77"/>
<path d="M163.573 248.912C163.485 248.602 163.44 248.304 163.407 247.994C163.374 247.684 163.363 247.385 163.363 247.075C163.363 246.765 163.374 246.466 163.407 246.157C163.44 245.847 163.485 245.548 163.573 245.238C163.662 245.548 163.706 245.847 163.739 246.157C163.772 246.466 163.783 246.765 163.783 247.075C163.783 247.385 163.772 247.684 163.739 247.994C163.706 248.304 163.662 248.602 163.573 248.912Z" fill="#D47B77"/>
<path d="M178.115 257.932C177.717 257.5 177.363 257.036 177.009 256.571C176.832 256.338 176.666 256.106 176.5 255.862L176.002 255.143C175.681 254.656 175.371 254.169 175.072 253.671C174.773 253.173 174.485 252.664 174.231 252.133C174.629 252.564 174.983 253.029 175.338 253.494C175.692 253.959 176.024 254.435 176.345 254.911L176.821 255.641C176.976 255.885 177.13 256.128 177.274 256.383C177.573 256.881 177.861 257.39 178.115 257.921V257.932Z" fill="#D47B77"/>
<path d="M217.681 185.685L219.263 200.438C219.263 200.438 219.175 201.467 218.079 201.677C216.983 201.899 216.618 200.316 216.618 200.316C216.618 200.316 211.007 201.024 206.16 201.235C201.312 201.445 188.983 190.179 188.983 190.179C188.983 190.179 177.042 191.85 174.762 190.179C172.847 188.784 173.323 187.556 173.323 187.556L187.168 185.187C187.168 185.187 175.459 184.545 173.323 183.273C171.032 181.911 171.519 179.023 171.519 179.023C171.519 179.023 170.169 178.049 169.97 176.743C169.76 175.448 170.036 174.375 170.036 174.375L174.773 174.341C174.773 174.341 173.323 173.965 172.748 172.327C172.349 171.165 172.482 169.826 172.482 169.826C172.482 169.826 192.392 170.933 194.838 172.084C197.284 173.246 199.995 176.4 199.995 176.4C199.995 176.4 198.678 174.187 199.575 171.862C200.438 169.627 201.987 169.826 201.987 169.826C201.987 169.826 205.33 180.196 206.392 182.52C207.455 184.844 209.303 186.98 209.303 186.98L214.77 185.564C214.77 185.564 215.002 184.213 216.209 184.125C217.714 184.014 217.692 185.674 217.692 185.674L217.681 185.685Z" fill="#67CCCD"/>
<path d="M222.915 180.993C222.838 180.993 222.771 180.938 222.738 180.86C222.705 180.76 222.76 180.661 222.86 180.639L281.262 163.164C282.18 161.017 301.105 117.124 311.829 106.123C311.896 106.057 312.017 106.046 312.084 106.123C312.15 106.19 312.161 106.311 312.084 106.378C301.183 117.556 281.749 162.931 281.549 163.385C281.527 163.429 281.483 163.474 281.439 163.485L222.96 180.982C222.96 180.982 222.926 180.982 222.904 180.982L222.915 180.993Z" fill="#1E2633"/>
<path d="M237.037 210.398C236.96 210.398 236.882 210.343 236.86 210.266C236.838 210.166 236.893 210.066 236.993 210.044C237.579 209.889 295.826 194.982 303.617 190.024C311.387 185.088 317.651 172.051 317.717 171.918C317.761 171.829 317.872 171.785 317.96 171.829C318.049 171.874 318.093 171.984 318.049 172.073C317.983 172.206 311.674 185.331 303.817 190.323C295.981 195.303 237.679 210.232 237.093 210.387C237.081 210.387 237.059 210.387 237.048 210.387L237.037 210.398Z" fill="#1E2633"/>
<path d="M174.74 174.342C176.024 174.242 177.319 174.209 178.602 174.187C179.244 174.175 179.886 174.187 180.528 174.187L182.454 174.209L184.379 174.264C185.021 174.297 185.663 174.319 186.305 174.353C187.589 174.43 188.873 174.519 190.157 174.674C188.873 174.773 187.578 174.806 186.294 174.828C185.652 174.84 185.01 174.828 184.368 174.828L182.443 174.806L180.517 174.751C179.875 174.718 179.233 174.696 178.591 174.662C177.308 174.585 176.024 174.496 174.74 174.342Z" fill="#339999"/>
<path d="M171.497 179.023C172.947 178.957 174.408 178.957 175.858 178.979C176.588 178.979 177.308 179.012 178.038 179.023L180.207 179.1L182.376 179.211C183.096 179.255 183.826 179.3 184.545 179.355C185.995 179.466 187.434 179.587 188.884 179.787C187.434 179.853 185.973 179.853 184.523 179.831C183.793 179.831 183.074 179.798 182.343 179.787L180.174 179.709L178.005 179.598C177.285 179.554 176.555 179.51 175.836 179.455C174.386 179.344 172.947 179.222 171.497 179.034V179.023Z" fill="#339999"/>
<path d="M197.505 176.998C197.085 177.241 196.708 177.529 196.354 177.839C196 178.149 195.69 178.492 195.402 178.857C194.827 179.587 194.384 180.406 194.063 181.281C193.731 182.144 193.532 183.062 193.399 184.003C193.266 184.933 193.211 185.885 193.178 186.858C192.968 185.918 192.879 184.944 192.934 183.959C192.99 182.985 193.156 182 193.51 181.07C193.853 180.141 194.373 179.266 195.059 178.547C195.225 178.37 195.413 178.193 195.602 178.038C195.79 177.883 195.989 177.728 196.199 177.595C196.609 177.33 197.051 177.108 197.527 176.987L197.505 176.998Z" fill="#339999"/>
<path d="M220.691 171.785C220.591 171.785 220.503 171.708 220.492 171.597C218.046 124.196 220.47 95.5763 220.492 95.2885C220.492 95.1779 220.602 95.1004 220.702 95.1115C220.813 95.1115 220.89 95.2111 220.879 95.3217C220.857 95.6095 218.433 124.196 220.879 171.575C220.879 171.685 220.802 171.774 220.691 171.785Z" fill="#1E2633"/>
<path d="M214.836 187.235C215.091 188.142 215.29 189.05 215.456 189.968C215.633 190.887 215.777 191.806 215.91 192.724C216.043 193.643 216.153 194.572 216.231 195.502C216.319 196.432 216.386 197.361 216.386 198.302C216.131 197.394 215.932 196.487 215.766 195.568C215.589 194.65 215.445 193.731 215.312 192.813C215.179 191.894 215.069 190.964 214.991 190.035C214.903 189.105 214.836 188.175 214.836 187.235Z" fill="#339999"/>
<path d="M166.229 109.344C167.081 108.813 167.967 108.326 168.852 107.861C169.738 107.396 170.645 106.953 171.553 106.533C172.46 106.112 173.379 105.703 174.308 105.326C175.238 104.939 176.168 104.585 177.13 104.275C176.278 104.806 175.393 105.293 174.508 105.758C173.622 106.223 172.715 106.666 171.807 107.086C170.9 107.507 169.981 107.905 169.051 108.292C168.122 108.68 167.192 109.034 166.229 109.344Z" fill="#339999"/>
<path d="M178.58 84.2656C178.414 85.0514 178.16 85.8261 177.839 86.5676C177.673 86.9439 177.485 87.298 177.274 87.6522C177.053 88.0063 176.798 88.3383 176.511 88.6371C176.223 88.936 175.935 89.2016 175.636 89.4783C175.349 89.7549 175.072 90.0316 174.795 90.3194C174.242 90.8838 173.722 91.4814 173.257 92.1122C172.781 92.7431 172.36 93.4071 172.017 94.1043C171.663 94.8016 171.387 95.532 171.165 96.2956C170.756 97.8118 170.678 99.4166 170.855 101.021C170.435 99.4719 170.368 97.7897 170.711 96.185C170.877 95.3771 171.165 94.6024 171.508 93.8609C171.862 93.1194 172.294 92.4221 172.781 91.7581C173.279 91.1051 173.81 90.4854 174.397 89.9209C174.972 89.3565 175.592 88.8253 176.19 88.3051C176.466 88.0395 176.721 87.7518 176.953 87.4308C177.186 87.1099 177.385 86.7779 177.584 86.4348C177.971 85.7375 178.304 85.0071 178.591 84.2656H178.58Z" fill="#339999"/>
<path d="M175.548 78.9202C175.028 78.9423 174.53 78.9091 174.032 78.8538C173.534 78.7984 173.036 78.7099 172.549 78.6103C172.062 78.5107 171.575 78.3889 171.088 78.2451C170.612 78.1012 170.136 77.9352 169.671 77.7138C170.191 77.6917 170.689 77.7249 171.187 77.7802C171.685 77.8356 172.183 77.9241 172.67 78.0237C173.157 78.1233 173.644 78.2451 174.131 78.3889C174.607 78.5328 175.083 78.6988 175.548 78.9202Z" fill="#339999"/>
<path d="M162.256 77.4593C162.776 77.9462 163.186 78.5549 163.551 79.1747C163.905 79.8055 164.182 80.4806 164.392 81.1779L164.536 81.698C164.591 81.8751 164.613 82.0522 164.658 82.2292C164.735 82.5834 164.779 82.9486 164.835 83.3028C164.868 83.4798 164.868 83.668 164.879 83.8451C164.879 84.0221 164.901 84.2103 164.912 84.3873C164.912 84.7526 164.912 85.1067 164.901 85.483C164.89 85.6711 164.879 85.8482 164.846 86.0364C164.824 86.2245 164.79 86.4016 164.757 86.5897C164.669 86.9549 164.558 87.3312 164.326 87.6743C164.292 87.7186 164.27 87.7628 164.237 87.796L164.126 87.9178C164.06 87.9953 163.96 88.0617 163.883 88.1281C163.695 88.2498 163.473 88.3383 163.252 88.3494C162.809 88.3826 162.411 88.2055 162.101 87.9953C161.459 87.5636 161.005 86.9549 160.651 86.3241C160.308 85.6822 160.076 84.9739 160.021 84.2656C160.209 84.9518 160.507 85.5937 160.906 86.1692C161.105 86.4569 161.315 86.7225 161.559 86.966C161.802 87.2095 162.057 87.4308 162.345 87.5968C162.488 87.6743 162.632 87.7407 162.776 87.785C162.92 87.8292 163.064 87.8403 163.197 87.8292C163.33 87.8292 163.451 87.7628 163.562 87.6854C163.606 87.6411 163.673 87.6079 163.706 87.5415L163.772 87.464L163.828 87.3644C163.983 87.1099 164.082 86.7889 164.16 86.468C164.193 86.302 164.226 86.136 164.237 85.97C164.259 85.8039 164.27 85.6269 164.281 85.4609C164.304 85.1178 164.292 84.7636 164.304 84.4205C164.292 84.0775 164.281 83.7233 164.248 83.3802C164.193 82.683 164.082 81.9968 163.927 81.3107C163.761 80.6356 163.551 79.9605 163.274 79.3186C162.998 78.6767 162.666 78.0458 162.245 77.4704L162.256 77.4593Z" fill="#339999"/>
<path d="M166.262 76.0648C166.76 76.4743 167.192 76.9723 167.591 77.4814C167.989 78.0016 168.343 78.5439 168.664 79.1083C168.985 79.6727 169.251 80.2814 169.483 80.8901C169.704 81.5099 169.892 82.1296 170.036 82.7715C170.158 83.4245 170.213 84.1107 170.103 84.7858C170.047 85.1288 169.937 85.4609 169.771 85.7818C169.605 86.1028 169.361 86.3794 169.04 86.5787C168.73 86.7779 168.354 86.8664 168 86.8443C167.646 86.8221 167.314 86.7115 167.015 86.5454C166.417 86.2134 165.975 85.7154 165.621 85.1731C166.074 85.6269 166.572 86.0474 167.137 86.2798C167.69 86.5233 168.332 86.5233 168.775 86.1913C169.217 85.8703 169.45 85.2949 169.527 84.7083C169.605 84.1217 169.549 83.502 169.428 82.8933C169.173 81.6759 168.753 80.4696 168.221 79.3296C167.945 78.7541 167.657 78.2008 167.325 77.6585C166.993 77.1162 166.639 76.585 166.24 76.0759L166.262 76.0648Z" fill="#339999"/>
<path d="M275.053 43.6711C263.122 47.8988 256.405 41.1589 252.432 41.6569C250.119 41.9447 247.728 44.2577 243.257 43.4941C243.257 43.4941 239.937 60.2277 251.203 65.5288C259.149 69.2585 267.959 65.1858 271.312 61.6885C274.666 58.1913 276.813 52.0158 276.813 52.0158L275.042 43.6822L275.053 43.6711Z" fill="#67CCCD"/>
<path d="M275.075 44.0585C275.075 44.0585 274.975 44.0585 274.931 44.0142C274.821 43.9367 274.787 43.7929 274.854 43.6711C274.887 43.6269 277.941 38.9012 280.31 35.9573C280.398 35.8466 280.553 35.8356 280.653 35.9241C280.764 36.0126 280.775 36.1676 280.686 36.2672C278.34 39.1889 275.296 43.8925 275.263 43.9478C275.219 44.0142 275.141 44.0585 275.064 44.0585H275.075Z" fill="#1E2633"/>
<path d="M260.599 44.3684C260.599 44.3684 260.5 44.3684 260.455 44.3462C258.972 43.6601 253.594 41.8893 252.52 41.8893C251.225 41.8893 249.952 42.985 249.93 42.996C249.809 43.0514 249.665 42.996 249.609 42.8632C249.554 42.7415 249.609 42.5976 249.742 42.5423C249.853 42.498 251.236 41.2917 252.631 41.2917C254.025 41.2917 260.455 43.7929 260.677 43.9036C260.798 43.9589 260.854 44.1028 260.798 44.2245C260.765 44.302 260.699 44.3462 260.621 44.3684H260.599Z" fill="#1E2633"/>
<path d="M254.8 65.1415C254.723 65.1526 254.645 65.1415 254.59 65.0751C251.413 61.9874 249.3 56.6308 249.322 51.7613C249.333 48.1976 250.749 44.3352 250.838 44.1802C250.904 44.0696 251.059 44.0253 251.17 44.0917C251.281 44.1581 251.325 44.313 251.258 44.4237C251.236 44.4569 249.82 48.3304 249.809 51.7613C249.787 56.5091 251.856 61.7217 254.933 64.732C255.032 64.8316 255.032 64.9755 254.933 65.0751C254.9 65.1083 254.844 65.1415 254.8 65.1415Z" fill="#1E2633"/>
<path d="M246.09 43.8261C246.024 43.8261 244.43 44.0806 243.202 43.7265C243.069 43.6933 243.002 43.5494 243.035 43.4277C243.069 43.2949 243.213 43.2285 243.334 43.2617C244.452 43.5826 245.99 43.3502 246.013 43.3502C246.145 43.3281 246.267 43.4166 246.289 43.5494C246.311 43.6822 246.223 43.8039 246.09 43.8261Z" fill="#1E2633"/>
<path d="M276.868 52.2371C276.868 52.2371 276.802 52.2371 276.768 52.2371C276.68 52.215 276.602 52.1375 276.591 52.049L274.887 44.0142C272.209 45.1763 268.734 45.3091 268.579 45.3091C268.446 45.3091 268.335 45.2095 268.324 45.0767C268.324 44.9439 268.424 44.8332 268.556 44.8221C268.59 44.8221 272.33 44.6783 274.953 43.4387C275.02 43.4055 275.097 43.4055 275.164 43.4387C275.23 43.4719 275.274 43.5383 275.296 43.6047L276.956 51.4403L281.45 49.2269C281.538 49.1273 281.693 49.1051 281.793 49.1937C281.892 49.2822 281.915 49.4372 281.826 49.5368L277.012 52.1375C277.012 52.1375 276.923 52.215 276.868 52.2261V52.2371Z" fill="#1E2633"/>
<path d="M171.497 75.2348L170.922 77.7581L175.548 78.9201L171.497 75.2348Z" fill="#67CCCD"/>
</g>
<defs>
<clipPath id="clip0_344_1463">
<rect width="340.87" height="280" fill="white"/>
</clipPath>
</defs>
</svg>
