<?xml version="1.0" encoding="UTF-8"?>
<svg id="Layer_1" data-name="Layer 1" xmlns="http://www.w3.org/2000/svg" viewBox="0 0 978.33 849.5">
  <defs>
    <style>
      .cls-1 {
        stroke: #000;
        stroke-miterlimit: 10;
      }

      .cls-1, .cls-2, .cls-3 {
        fill: #fff;
      }

      .cls-4 {
        fill: #ffe9dc;
      }

      .cls-4, .cls-5, .cls-6, .cls-7, .cls-8, .cls-9, .cls-10, .cls-11, .cls-12, .cls-13, .cls-14, .cls-15, .cls-16, .cls-17, .cls-18, .cls-19, .cls-20, .cls-21, .cls-22, .cls-3, .cls-23, .cls-24, .cls-25 {
        stroke-width: 0px;
      }

      .cls-5 {
        fill: #2b1706;
      }

      .cls-6 {
        fill: #5872c5;
      }

      .cls-7 {
        fill: #bc5651;
      }

      .cls-26 {
        letter-spacing: 0em;
      }

      .cls-8 {
        fill: #9cf;
      }

      .cls-9 {
        fill: #69f;
      }

      .cls-10 {
        fill: #c2fcff;
      }

      .cls-11 {
        fill: #67cccd;
      }

      .cls-12 {
        fill: #632a00;
      }

      .cls-2 {
        font-family: MyriadPro-Semibold, 'Myriad Pro';
        font-size: 9.52px;
        font-weight: 600;
      }

      .cls-13 {
        fill: #7d92be;
      }

      .cls-14 {
        fill: #ff6039;
      }

      .cls-15 {
        fill: #399;
      }

      .cls-16 {
        fill: #f2afe2;
      }

      .cls-17 {
        fill: #1d2633;
      }

      .cls-18 {
        fill: #adc1f2;
        opacity: .3;
      }

      .cls-19 {
        fill: #442c0c;
      }

      .cls-27 {
        letter-spacing: -.04em;
      }

      .cls-20 {
        fill: #f0a38f;
      }

      .cls-21 {
        fill: #ff737a;
      }

      .cls-22 {
        fill: #d47b77;
      }

      .cls-23 {
        fill: #4e86f9;
      }

      .cls-24 {
        fill: #3b4858;
      }

      .cls-25 {
        fill: #1e2633;
      }
    </style>
  </defs>
  <g>
    <polygon class="cls-20" points="518.73 338.11 522.49 364.3 557.74 340.5 549.98 322.39 518.73 338.11"/>
    <path class="cls-1" d="M679.21,276.77s-20.73,5.64-37.01,42.61c-16.28,36.97-43.96,97.4-43.96,97.4l-28.43-87.68-69.09,40.96s26.65,147.56,84.43,167.68c57.78,20.12,94.23-84.47,94.23-84.47l-.18-176.5Z"/>
    <path class="cls-25" d="M520.67,393.33c-.13-.02-.25-.09-.34-.21-.17-.23-.12-.55.11-.72l50.94-37.35c.23-.17.55-.12.72.11.17.23.12.55-.11.72l-50.94,37.35c-.12.09-.26.11-.39.09Z"/>
    <path class="cls-25" d="M520,381.47c-4.02-.64-6.77-4.42-6.13-8.43.63-4.02,4.42-6.77,8.43-6.13,4.02.63,6.77,4.42,6.13,8.43-.63,4.02-4.42,6.77-8.43,6.13ZM522.14,367.93c-3.45-.55-6.7,1.82-7.25,5.27-.55,3.45,1.82,6.7,5.27,7.25,3.45.55,6.7-1.82,7.25-5.27.55-3.45-1.82-6.7-5.27-7.25Z"/>
    <path class="cls-11" d="M532.73,227.52l23.18-34.45s4.5,1.55,4.73,8.21c.23,6.65-13.64,32.89-13.64,32.89l-14.27-6.64Z"/>
    <path class="cls-11" d="M576.39,239.04s-8.04,23.45-12.51,42.6c-4.35,18.63-9.47,21.55-11.31,26.66-1.57,4.37-.09,8.47-.09,8.47,0,0,3.86-2.26,5.21,1.39,1.2,3.25-2.86,5.17-2.86,5.17l-37.92,19.99s-5.37,3.21-6.76-.98c-1.38-4.19,2.88-6.65,2.88-6.65,0,0,1.23-7.85-3.48-13.21-4.71-5.36-15.97-22.47-17.58-43.09-1.61-20.62-1.33-35.52,4.54-40.01,3.37-2.58,8.2-.86,8.2-.86,0,0,2.89-4.24,6.82-4.84,3.93-.6,5.16.68,5.16.68,0,0,6.46-8.44,10.76-9.12,4.3-.68,25.9,11.47,25.9,11.47,0,0,1.01,3.27-2.05,5.08-3.05,1.81-6.85,1.1-6.85,1.1l9.54,14.2s4.54-13.18,9.46-17.08c4.92-3.9,12.94-.98,12.94-.98Z"/>
    <g>
      <g>
        <path class="cls-18" d="M560.86,194.7v-1.53h-20.96v1.53c0,1.83-.96,3.52-2.51,4.49-1.66,1.04-2.76,2.89-2.76,4.99v43.3c0,1.69,1.37,3.06,3.06,3.06h25.37c1.69,0,3.06-1.37,3.06-3.06v-43.3c0-2.1-1.1-3.95-2.76-4.99-1.55-.97-2.51-2.66-2.51-4.49Z"/>
        <path class="cls-10" d="M566.13,206.73v40.75c0,1.69-1.37,3.06-3.06,3.06h-25.37c-1.69,0-3.06-1.37-3.06-3.06v-40.75h31.5Z"/>
        <g>
          <rect class="cls-3" x="536.57" y="185.47" width="27.63" height="7.54" rx="1.28" ry="1.28"/>
          <path class="cls-13" d="M562.91,193.3h-25.06c-.87,0-1.57-.71-1.57-1.57v-4.97c0-.87.7-1.57,1.57-1.57h25.06c.87,0,1.57.71,1.57,1.57v4.97c0,.87-.7,1.57-1.57,1.57ZM537.85,185.76c-.55,0-1,.45-1,1v4.97c0,.55.45,1,1,1h25.06c.55,0,1-.45,1-1v-4.97c0-.55-.45-1-1-1h-25.06Z"/>
        </g>
        <path class="cls-13" d="M563.07,250.84h-25.37c-1.85,0-3.35-1.5-3.35-3.35v-43.3c0-2.14,1.08-4.1,2.9-5.23,1.49-.93,2.37-2.52,2.37-4.25v-1.81h21.53v1.81c0,1.73.89,3.31,2.37,4.25,1.81,1.14,2.9,3.09,2.9,5.23v43.3c0,1.85-1.5,3.35-3.35,3.35ZM540.19,193.46v1.24c0,1.93-.99,3.7-2.64,4.73-1.65,1.03-2.63,2.81-2.63,4.75v43.3c0,1.53,1.24,2.77,2.77,2.77h25.37c1.53,0,2.77-1.24,2.77-2.77v-43.3c0-1.94-.98-3.72-2.63-4.75-1.65-1.04-2.64-2.81-2.64-4.73v-1.24h-20.38Z"/>
        <path class="cls-6" d="M566.13,185.47v4.79h-31.5v-4.79c0-.8.65-1.45,1.45-1.45h28.6c.8,0,1.45.65,1.45,1.45Z"/>
      </g>
      <rect class="cls-6" x="535.84" y="211.96" width="29.28" height="18.33"/>
      <path class="cls-3" d="M563.49,234.14c-.16,0-.29-.13.88-.29v-25.04c-1.17-.16-1.04-.29-.88-.29s.29.13.29.29v25.04c0,.16-.13.29-.29.29Z"/>
    </g>
    <path class="cls-11" d="M527.45,225.24c4.3-.68,25.9,11.47,25.9,11.47,0,0,1.01,3.27-2.05,5.08-3.05,1.81-6.85,1.1-6.85,1.1,0,0-21.3-16.97-17-17.66Z"/>
    <path class="cls-25" d="M606.03,437.31l-8.07-19.86c-.11-.26.02-.57.28-.67h0c.27-.11.57.02.67.28l8.07,19.86c.11.26-.02.57-.28.67h0c-.26.11-.57-.02-.67-.28Z"/>
    <path class="cls-15" d="M516.58,333.81c2.56-1.6,5.19-3.04,7.85-4.43,2.66-1.38,5.34-2.71,8.06-3.97,2.71-1.27,5.46-2.47,8.23-3.61,2.77-1.14,5.57-2.23,8.44-3.15-2.56,1.6-5.19,3.05-7.85,4.43-2.66,1.38-5.34,2.71-8.06,3.97-2.71,1.26-5.46,2.46-8.23,3.61-2.77,1.14-5.57,2.23-8.44,3.15Z"/>
    <path class="cls-15" d="M553.51,258.85c-.48,2.36-1.26,4.66-2.22,6.89-.5,1.11-1.06,2.19-1.7,3.25-.65,1.05-1.41,2.04-2.27,2.96-.86.88-1.73,1.69-2.6,2.52-.86.82-1.7,1.66-2.52,2.51-1.64,1.7-3.2,3.48-4.59,5.37-1.41,1.88-2.67,3.86-3.71,5.96-1.07,2.08-1.9,4.28-2.54,6.54-1.24,4.53-1.46,9.33-.94,14.11-1.26-4.64-1.47-9.64-.43-14.44.5-2.4,1.34-4.73,2.37-6.96,1.04-2.23,2.36-4.31,3.8-6.29,1.48-1.95,3.09-3.79,4.83-5.49,1.73-1.7,3.59-3.29,5.35-4.84.83-.78,1.57-1.67,2.27-2.61.68-.95,1.31-1.95,1.89-2.99,1.15-2.07,2.14-4.25,3.01-6.5Z"/>
    <path class="cls-15" d="M544.45,242.9c-1.54.06-3.04-.05-4.54-.21-1.49-.17-2.97-.41-4.43-.72-1.46-.3-2.92-.66-4.35-1.1-1.44-.44-2.86-.93-4.25-1.6,1.54-.07,3.04.05,4.54.21,1.49.17,2.97.41,4.43.72,1.46.3,2.92.67,4.35,1.1,1.44.44,2.86.93,4.25,1.6Z"/>
    <path class="cls-15" d="M504.72,238.51c1.57,1.47,2.79,3.27,3.86,5.14,1.05,1.89,1.88,3.9,2.53,5.97l.44,1.57c.16.52.23,1.06.35,1.59.24,1.06.37,2.14.52,3.22.09.54.09,1.08.14,1.62.03.54.07,1.08.09,1.63-.01,1.09.02,2.16-.03,3.26-.03.55-.07,1.1-.15,1.65-.06.55-.17,1.1-.28,1.65-.26,1.1-.6,2.21-1.28,3.24-.09.13-.17.26-.26.38l-.32.35c-.2.25-.48.43-.74.64-.56.35-1.21.62-1.88.65-1.34.09-2.5-.44-3.46-1.06-1.91-1.3-3.27-3.1-4.32-5-1.01-1.93-1.72-4.02-1.87-6.16.55,2.06,1.46,3.98,2.63,5.7.58.86,1.24,1.67,1.96,2.39.72.72,1.5,1.38,2.35,1.87.43.23.86.44,1.3.55.44.14.87.17,1.27.13.4-.03.75-.21,1.08-.43.15-.14.32-.24.45-.43l.21-.24.18-.29c.47-.77.78-1.71.99-2.68.09-.49.19-.99.23-1.5.07-.5.1-1.02.13-1.53.06-1.03.05-2.08.07-3.12-.05-1.04-.08-2.08-.16-3.12-.16-2.08-.51-4.13-.97-6.17-.51-2.02-1.13-4.02-1.97-5.95-.82-1.93-1.81-3.81-3.07-5.53Z"/>
    <path class="cls-15" d="M516.7,234.36c1.48,1.24,2.76,2.71,3.96,4.23,1.18,1.54,2.25,3.17,3.2,4.87.95,1.7,1.74,3.49,2.46,5.31.67,1.84,1.24,3.7,1.67,5.64.37,1.95.54,3.99.21,6.03-.18,1.01-.48,2.03-.99,2.97-.49.94-1.23,1.8-2.17,2.38-.93.6-2.05.86-3.12.79-1.07-.06-2.07-.41-2.95-.89-1.77-.99-3.11-2.48-4.16-4.1,1.35,1.36,2.83,2.62,4.54,3.3,1.67.72,3.59.72,4.9-.28,1.33-.97,2.03-2.69,2.25-4.43.24-1.76.08-3.61-.29-5.41-.77-3.65-2.03-7.24-3.6-10.66-.81-1.7-1.69-3.39-2.68-5.01-.98-1.63-2.04-3.22-3.24-4.73Z"/>
    <polygon class="cls-11" points="532.33 231.86 530.63 239.4 544.45 242.9 532.33 231.86"/>
    <text class="cls-2" transform="translate(537.2 223.67)"><tspan class="cls-27" x="0" y="0">V</tspan><tspan x="5.36" y="0">a</tspan><tspan class="cls-26" x="10.2" y="0">c</tspan><tspan x="14.39" y="0">cin</tspan></text>
  </g>
  <path class="cls-12" d="M136.04,284.88c-28.83,18-22.17,42.13-44.15,55.99-21.96,13.85-57.64,14.21-77.17,52.6-19.53,38.39-5.6,83.75,32.44,107.68,38.04,23.93,81.06,19.68,101.69-8.32,15.79-21.44,15.74-54.45,27.51-70.76,11.77-16.31,31.92-32.79,43.59-57.22,11.68-24.43-6.81-90.09-6.81-90.09,0,0-46.65-8.88-77.09,10.13Z"/>
  <path class="cls-5" d="M675.35,81.11c-11.08,6.32-15.65,13.08-20.99,25.64-1.84,4.32-2.89,15.99-1.01,20.29,4.89,11.21,13.03,10.4,27.82,11.28-16.13,3.31-18.53,7.15-23.26,15.1-3.34,5.6-2.64,14.37-1.79,20.79,1.04,7.85,3.3,15.49,6.71,22.56,2.44,5.06,5.75,10.25,10.85,12.3s11.47-.29,12.67-5.57c1.97,13.06,4.84,27.64,15.39,34.93,11.44,7.9,26.74,3.66,39.39-1.89-2.2,2.57,1.38,6.2,4.52,7.26,7.27,2.47,15.2,2.78,22.63.9,1.95-10.63,3.8-22.29-.6-32.09-4.4-9.8-15.03-18.08-20.11-27.51-14.33-26.61-21-59.93-7.98-87.65.83-1.76,2.47-3.62,1.94-5.51-4.41-15.9-37.79-27.06-66.19-10.84Z"/>
  <path class="cls-5" d="M857.21,60.95c9.36.84,18.73-3.83,27.97-2.12,8.09,1.5,14.62,7.7,19.23,14.62,5.16,7.75,8.55,17.02,7.9,26.35-.65,9.33-5.87,18.59-14.24,22.5,8.85-4.13,19.29-.08,24.12,7.9,3.69,6.11,7.26,12.49,8.45,19.53.78,4.63.5,9.44-.83,13.95-2.19,7.43-7.16,13.85-13.27,18.61-5.08,3.96-15.57,10.87-22.03,10.37.33-.68,1.23-1.24,1.94-.58.7.65.68,1.75.6,2.71-.44,4.96-1.36,9.89-2.88,14.62-1.77,5.51-4.49,10.92-8.92,14.57-3.44,2.83-7.68,4.43-11.83,5.98-2.6.97-5.19,1.94-7.79,2.91-7.94,2.97-15.89,5.94-24.04,8.25-2.77.78-5.68,1.5-8.49.85s-5.41-3.08-5.31-6c1.22-36.06-12.37-71.18-10.83-107.23.24-5.51.61-11.12,2.68-16.22,2.75-6.77,8.22-11.95,13.53-16.9.84.82,1.2,2.13.89,3.27-.48-.76-.96-1.51-1.44-2.27,2.06-7.2,8.49-10.11,8.22-17.61-.03-.95-.16-1.93.17-2.81.42-1.12,1.48-1.84,2.46-2.51,4.88-3.35,9.33-7.35,13.18-11.88.19-.22.39-.49.33-.78s.28-.37.24-.08Z"/>
  <path class="cls-20" d="M838.54,156.14l5.24,87.6s-12.24,32.1-57.23,29.08c-27.16-1.82-26.47-23.28-26.47-23.28l5.28-59.83,73.18-33.57Z"/>
  <path class="cls-22" d="M764.19,203.76l-1.26,15.6s32.82,6.81,47.63-21.2c15.88-30.04-46.37,5.6-46.37,5.6Z"/>
  <path class="cls-20" d="M835.73,162.78s-26.84,57.43-69.96,47.8c-58.86-13.15-37.66-120.12-37.66-120.12l84.34-17.9,24.22,59.8-.94,30.42Z"/>
  <path class="cls-7" d="M785.8,174.17c1.9,2.81-1.49,7.96-5.67,10.8-4.18,2.84-10.5,3.44-11.69.13-1.08-3.02,2.96-7.92,7.27-10.13,4.31-2.21,9.27-1.99,10.08-.79Z"/>
  <path class="cls-5" d="M725.59,46.51s-39.64-38.29-47.26,10.75c-3.57,23.02,43.44,38.72,83.49,30.43,16.05-3.32,27.74-6.84,35.98-9.86,7.16-2.63,14.84,2.29,15.37,9.9.45,6.39,2.13,13.65,6.41,20.27,10.99,16.99,33.11,27.08,33.11,27.08,0,0,19.41-76.07,10.34-95.47-10.12-21.64-48.62-14.32-48.62-14.32,0,0-1.84-16.52-17.65-15.68-16.23.86-17.84,17.53-17.84,17.53,0,0-11.41-35.34-41-25.37-31.88,10.75-12.33,44.74-12.33,44.74Z"/>
  <path class="cls-20" d="M831.62,129.24c-8.98,7.3-10.81,19.1-4.1,26.35,6.72,7.25,19.44,7.21,28.42-.09,8.98-7.3,10.81-19.1,4.1-26.35-6.72-7.25-19.44-7.21-28.42.09Z"/>
  <path class="cls-25" d="M849.64,143.66c-1.48-.24-2.97-.48-4.42-.6-1.46-.11-2.88-.08-4.21.18-1.34.25-2.59.69-3.75,1.28-1.17.57-2.27,1.26-3.33,1.99-.35.24-.89.16-1.21-.17-.25-.26-.29-.6-.14-.85h0c1.1-1.81,2.42-3.47,3.98-4.95.77-.74,1.6-1.44,2.46-2.1.45-.32.89-.64,1.35-.94l1.43-.86c1.96-1.08,4.14-1.93,6.53-2.3,2.36-.37,4.96-.2,7.27.71-2.41-.51-4.78-.38-6.92.17-2.15.55-4.1,1.47-5.88,2.59l-1.3.87c-.42.31-.82.63-1.23.94-.81.64-1.58,1.32-2.31,2.04-1.44,1.44-2.78,2.97-3.83,4.65l-1.35-1.03c1.15-.72,2.35-1.4,3.65-1.96,1.31-.54,2.74-.96,4.25-1.11,1.51-.15,3.07-.05,4.57.24,1.51.28,2.96.73,4.4,1.21Z"/>
  <path class="cls-25" d="M725.29,111.78c-.33,4.59,16.65,1.81,20.93-2.19,4.97-4.65-20.41-5-20.93,2.19Z"/>
  <path class="cls-25" d="M767.68,109.01c4.71,4.57,32.06,11.53,32.43,5.1.37-6.43-37.66-10.18-32.43-5.1Z"/>
  <path class="cls-25" d="M730.86,124.82c.36-1.54,1.26-2.98,2.54-4.11,1.27-1.14,3.03-1.92,4.86-2.04,1.83-.12,3.6.38,5.11,1.14,1.52.76,2.81,1.81,3.86,3.03-1.53-.65-2.97-1.32-4.45-1.78-1.47-.47-2.96-.73-4.39-.64-1.43.1-2.82.56-4.08,1.35-1.26.79-2.4,1.84-3.45,3.05Z"/>
  <path class="cls-25" d="M743.2,129.71c0,3.48-2.2,6.31-4.92,6.31-2.72,0-4.93-2.82-4.93-6.31,0-3.48,2.2-6.31,4.92-6.31,2.72,0,4.93,2.82,4.93,6.31Z"/>
  <path class="cls-25" d="M770.4,127.45c.81-1.87,2.31-3.5,4.2-4.64,1.89-1.15,4.25-1.71,6.52-1.54,2.29.14,4.42.96,6.29,2.02,1.87,1.08,3.49,2.45,4.84,4.01-1.86-1.01-3.65-2.02-5.52-2.8-1.87-.77-3.79-1.35-5.74-1.48-1.94-.14-3.88.18-5.68.98-1.79.8-3.45,1.99-4.91,3.45Z"/>
  <path class="cls-25" d="M783.54,132.65c0,3.71-2.35,6.72-5.24,6.72-2.9,0-5.24-3.01-5.24-6.72,0-3.71,2.35-6.72,5.24-6.72,2.9,0,5.24,3.01,5.24,6.72Z"/>
  <path class="cls-25" d="M755.03,129.01c-1.44,4.13-2.88,8.23-4.19,12.37-.63,2.07-1.28,4.13-1.8,6.22-.53,2.08-1.02,4.17-1.25,6.25-.13,1.04-.21,2.08-.13,3.07.03.49.1.98.23,1.42.04.24.15.42.23.63.08.2.25.41.37.61,1.06,1.66,2.8,2.98,4.6,4.13,1.84,1.14,3.82,2.12,5.86,3,2.03.89,4.13,1.67,6.26,2.4-2.24-.36-4.44-.93-6.61-1.61-2.15-.71-4.28-1.54-6.28-2.64-1.99-1.09-3.92-2.45-5.3-4.4-.16-.25-.36-.47-.49-.76-.13-.29-.28-.59-.34-.88-.18-.59-.27-1.17-.31-1.75-.1-1.15-.03-2.28.1-3.38.59-4.42,1.95-8.61,3.51-12.71,1.58-4.1,3.39-8.11,5.53-11.97Z"/>
  <path class="cls-25" d="M763.14,184.77c2.9-.13,5.71-.63,8.38-1.47.65-.24,1.33-.42,1.97-.69.63-.28,1.29-.51,1.9-.82.61-.33,1.22-.63,1.84-.94l1.73-1.11.44-.27.4-.31.8-.63.81-.63c.26-.21.49-.47.74-.7l1.48-1.4c.43-.52.87-1.03,1.32-1.54l.67-.77.58-.83,1.19-1.66c.75-1.14,1.39-2.34,2.17-3.51-.42,1.29-.86,2.61-1.42,3.88l-.98,1.85-.51.92-.62.86c-.41.58-.83,1.15-1.26,1.72l-1.48,1.57c-.25.26-.49.53-.76.76l-.85.68-.85.68-.42.34-.46.3c-2.41,1.66-5.2,2.81-8.08,3.46-2.87.65-5.89.8-8.75.26Z"/>
  <path class="cls-1" d="M977.83,849h-324.66c1.29-68.83,5.84-197.42,5.66-275.55-.09-39.59-7.53-145.55-6.81-181.5.72-35.96,29.03-116.75,29.03-116.75l79.03-25.66c2.76,41.13,61.91,45.01,83.7-5.81l97.23,34.97,1.78,155.14s-7.32,125.99-4.44,149.35c2.88,23.37,9.54,54.82,23.54,109.17,7.77,30.17,15.94,123.96,15.94,156.64Z"/>
  <g>
    <path class="cls-4" d="M920.3,654.52l-6.95,1.07,1.5-11.26c.08-.59.83-.71,1.06-.16l4.39,10.35Z"/>
    <polygon class="cls-21" points="923.8 680.54 916.85 681.61 913.35 655.59 920.3 654.52 923.8 680.54"/>
    <path class="cls-21" d="M917.24,647.3l-1.33-3.13c-.23-.54-.98-.43-1.06.16l-.46,3.41,2.84-.44Z"/>
  </g>
  <g>
    <path class="cls-17" d="M940.28,672.17c-.46.01-.85-.34-.87-.81l-.96-17.88-3.41.46c-.47.06-.9-.26-.96-.73-.06-.47.26-.9.73-.96l4.33-.58c.24-.03.47.04.66.19.18.15.3.37.31.61l1.01,18.8c.03.47-.34.87-.81.9,0,0-.02,0-.02,0Z"/>
    <path class="cls-17" d="M932.78,650.62l-3.9.53-.94-6.95c-.15-1.08.61-2.07,1.69-2.21h0c1.08-.15,2.07.61,2.21,1.69l.94,6.95Z"/>
    <rect class="cls-9" x="928.67" y="650.75" width="8.31" height="28.98" transform="translate(-80.67 130.89) rotate(-7.69)"/>
  </g>
  <path class="cls-23" d="M843.78,243.73c-8.37,30.34-42.39,179.83-71.6,272.26-10.32-100.63-12.1-266.44-12.1-266.45,10.86,28.93,52.63,23.28,83.7-5.8Z"/>
  <path class="cls-25" d="M899.88,779.72c-12.92,0-24.1-9.71-25.63-22.85l-8.04-69.36c-.03-.26.16-.5.42-.53l84.76-9.82c.13-.01.25.02.35.1.1.08.16.19.18.32l8.04,69.36c.79,6.85-1.13,13.6-5.41,19-4.28,5.4-10.41,8.82-17.26,9.61l-.05-.47.05.47-34.42,3.99c-1,.12-2,.17-2.99.17ZM867.22,687.87l7.98,68.89c.76,6.6,4.05,12.5,9.26,16.63,5.21,4.12,11.71,5.97,18.31,5.21l34.42-3.99c6.6-.76,12.5-4.05,16.63-9.26,4.13-5.21,5.98-11.71,5.21-18.31l-7.98-68.89-83.82,9.71Z"/>
  <path class="cls-25" d="M879.08,703.9c-.24,0-.44-.18-.47-.42-.03-.26.16-.5.42-.53l62.08-7.19c.26-.03.5.16.53.42.03.26-.16.5-.42.53l-62.08,7.19s-.04,0-.06,0Z"/>
  <path class="cls-25" d="M767.68,533.96c-.24,0-.47-.15-.56-.39l-51.34-146.11c-.06-.18-.03-.39.08-.54l23.99-32.82-25.89-44.93c-.12-.2-.1-.46.04-.65l41.06-54.68c.19-.26.56-.31.82-.12.26.2.31.56.12.82l-40.83,54.37,25.89,44.92c.12.2.1.45-.03.64l-24.04,32.87,51.24,145.81c.11.31-.05.64-.36.75-.06.02-.13.03-.19.03Z"/>
  <path class="cls-25" d="M776.91,533.96c-.1,0-.2-.02-.29-.08-.28-.16-.38-.52-.22-.8l82.1-144.78-22.73-34.1c-.14-.21-.13-.5.03-.7l36.47-44.83-24.46-57.53c-.13-.3.01-.64.31-.77.3-.13.64.01.77.31l24.6,57.85c.09.2.05.43-.09.6l-36.42,44.77,22.69,34.04c.12.18.13.42.02.62l-82.28,145.1c-.11.19-.31.3-.51.3Z"/>
  <path class="cls-25" d="M773.08,836.81c-.32,0-.58-.25-.59-.57l-5.41-232.86c0-.33.25-.59.57-.6.33.02.59.25.6.57l5.41,232.86c0,.33-.25.59-.57.6h-.01Z"/>
  <path class="cls-25" d="M789.23,658.65c-5.26,0-9.54-4.28-9.54-9.54s4.28-9.54,9.54-9.54,9.54,4.28,9.54,9.54-4.28,9.54-9.54,9.54ZM789.23,640.74c-4.61,0-8.37,3.75-8.37,8.37s3.75,8.37,8.37,8.37,8.37-3.75,8.37-8.37-3.75-8.37-8.37-8.37Z"/>
  <path class="cls-25" d="M790.94,729.34c-5.26,0-9.54-4.28-9.54-9.54s4.28-9.54,9.54-9.54,9.54,4.28,9.54,9.54-4.28,9.54-9.54,9.54ZM790.94,711.43c-4.61,0-8.37,3.75-8.37,8.37s3.75,8.37,8.37,8.37,8.37-3.75,8.37-8.37-3.75-8.37-8.37-8.37Z"/>
  <path class="cls-25" d="M790.94,798.07c-5.26,0-9.54-4.28-9.54-9.54s4.28-9.54,9.54-9.54,9.54,4.28,9.54,9.54-4.28,9.54-9.54,9.54ZM790.94,780.16c-4.61,0-8.37,3.75-8.37,8.37s3.75,8.37,8.37,8.37,8.37-3.75,8.37-8.37-3.75-8.37-8.37-8.37Z"/>
  <path class="cls-25" d="M686.35,692.53c-.08-.09-.2-.15-.33-.16l-29.02-1.35c0,.32-.01.63-.02.95l28.53,1.33-3.22,69.27c-.31,6.64-3.19,12.75-8.1,17.23-4.91,4.47-11.27,6.77-17.9,6.46l-1.91-.09c0,.32-.02.64-.03.95l1.9.09c6.89.32,13.49-2.06,18.59-6.7,5.1-4.64,8.08-10.99,8.4-17.88l3.25-69.75c0-.13-.04-.25-.12-.34Z"/>
  <path class="cls-25" d="M673.3,709.56c0,.26-.23.46-.49.45l-16.29-.76c0-.32.01-.63.02-.95l16.31.76c.27.01.47.24.45.5Z"/>
  <g>
    <path class="cls-9" d="M837.14,495.48c-.26.05-.53,0-.78-.14l-6.97-4.21c-.26-.16-.45-.42-.51-.73l-3.81-19.49c-.12-.59.27-1.17.86-1.29.59-.12,1.17.27,1.29.86l3.72,19.02,6.55,3.96c.52.31.68.99.37,1.5-.17.28-.43.45-.73.51Z"/>
    <path class="cls-8" d="M882.14,495.85c-.48.09-.98-.14-1.2-.61-.26-.55-.03-1.2.52-1.46l8.41-3.98,1.7-18.85c.05-.6.59-1.05,1.19-.99.6.05,1.05.59.99,1.19l-1.75,19.47c-.04.39-.27.73-.62.89l-8.98,4.25c-.08.04-.17.07-.26.09Z"/>
    <path class="cls-25" d="M893.08,473.2c-.15.03-.31.04-.48.04-1.21-.03-2.17-1.03-2.14-2.24.01-.57,1.15-56.77-19.36-74.83-5.12-4.51-11.03-6.19-18.06-5.12-7.74,1.17-13.92,5.02-18.38,11.42-15.52,22.27-6.28,68.29-6.19,68.76.24,1.19-.52,2.34-1.7,2.59,0,0-.01,0-.02,0-1.18.23-2.32-.53-2.57-1.71-.4-1.96-9.71-48.32,6.88-72.14,5.18-7.43,12.34-11.89,21.32-13.26,8.27-1.26,15.55.82,21.62,6.17,22.03,19.41,20.9,75.83,20.84,78.22-.03,1.05-.78,1.9-1.77,2.1Z"/>
    <path class="cls-25" d="M846.45,498.29c-.78,2.28-3.76,3.33-6.66,2.34-2.89-.99-4.6-3.65-3.82-5.93.78-2.28,3.76-3.33,6.66-2.34,2.89.99,4.6,3.65,3.82,5.93Z"/>
    <path class="cls-25" d="M883.58,494.62c.62,2.33-1.27,4.86-4.23,5.65-2.96.79-5.85-.47-6.47-2.8-.62-2.33,1.27-4.86,4.23-5.65,2.96-.79,5.85.47,6.47,2.8Z"/>
    <path class="cls-25" d="M857.44,390.16c-.22.04-.45.05-.68.03-1.2-.14-2.06-1.23-1.92-2.43.11-.94,10.81-94.42-11.49-142.88-.51-1.1-.03-2.4,1.07-2.91,1.1-.51,2.4-.03,2.91,1.07,9.6,20.86,14.51,51.65,14.6,91.53.06,29.6-2.71,53.45-2.74,53.69-.11.97-.85,1.72-1.75,1.89Z"/>
    <path class="cls-9" d="M869.86,396.17c-1,.2-2.08.04-3.03-.51-9.97-5.77-20.09-.63-20.52-.4-2.14,1.11-4.78.3-5.91-1.84-1.13-2.13-.33-4.77,1.8-5.9.6-.32,14.75-7.7,29.02.56,2.09,1.21,2.81,3.89,1.6,5.99-.66,1.14-1.75,1.87-2.95,2.11Z"/>
  </g>
  <g>
    <path class="cls-25" d="M722.03,447.84c-1.05.3-2.17-.22-2.6-1.25-.41-1-10.05-25.45-1.09-98.35,7.33-59.65,37.21-97.88,37.51-98.26.74-.94,2.64-2.92,3.58-2.18.94.74.81,1.76.06,2.69-.29.37-29.67,39.88-36.85,98.27-8.78,71.44.7,95.93.8,96.17.45,1.11-.08,2.37-1.19,2.82-.07.03-.15.06-.22.08Z"/>
    <path class="cls-25" d="M736.49,429.55c2.78,9.67-2.81,19.76-12.48,22.54-9.67,2.78-19.76-2.81-22.54-12.48-2.78-9.67,2.81-19.76,12.48-22.54,9.67-2.78,19.76,2.81,22.54,12.48Z"/>
    <path class="cls-9" d="M731.08,431.1c1.92,6.68-1.94,13.66-8.62,15.58-6.68,1.92-13.66-1.94-15.58-8.62-1.92-6.68,1.94-13.66,8.62-15.58,6.68-1.92,13.66,1.94,15.58,8.62Z"/>
  </g>
  <polygon class="cls-20" points="663.53 564.74 644.32 570.33 650.52 610.03 675.82 607.31 663.53 564.74"/>
  <g id="mother_and_child" data-name="mother and child">
    <path class="cls-24" d="M125.82,595.98s-44.27,76.21-49.98,121.78c-5.7,45.57,10.33,131.24,10.33,131.24h251.77s-5.72-84.93-13.19-134.15c-5.73-37.75-14.14-77.98-27.67-118.88H125.82Z"/>
    <path class="cls-25" d="M95.51,838.55c-.3,0-.57-.22-.61-.53-.12-.77-11.82-77.13-7.48-117.45,4.77-44.31,43.98-108.18,44.38-108.82.18-.29.56-.38.86-.2.29.18.38.56.2.86-.39.64-39.46,64.27-44.2,108.3-4.32,40.16,7.35,116.36,7.47,117.12.05.34-.18.66-.52.71-.03,0-.06,0-.1,0Z"/>
    <path class="cls-20" d="M28,497.92S0,560.05,0,574.02s55.67,120.23,74.57,127.52c11.09,4.28,26.15-4.75,30.46-.53,4.32,4.23,13.26,17.95,20.79,19.4,5.52,1.06,7.46-1.77,7.46-1.77l-12.44-17.63s14.35,17.06,25.1,17.39c4.39.13,7.35-1.97,7.35-1.97l-5.14-5.6s4.7,2.42,9.18,1.54c3.31-.65,5.12-2.87,5.12-2.87l-26.41-28.66s17.91,15.19,26.41,15.97c5.1.47,8.19-2.87,8.19-2.87,0,0-25.8-24.98-32.55-26.41-6.76-1.43-23.6-1.3-23.6-1.3,0,0,12.15-1.89,15.44-6.09,2.77-3.55,2.41-8.78,2.41-8.78l-47.38,11.11s-27.55-79.3-27.96-83.6c-.41-4.3,26.24-57.33,26.24-57.33l-55.24-23.63Z"/>
    <path class="cls-16" d="M323.2,370.79c24.57,8.11,71.94,104.53,71.94,104.53l-59.43,68.22-31.14-48.03-12.89-81.1,31.52-43.61Z"/>
    <path class="cls-16" d="M0,537.73l74.62,35.93,41.85-68.29-31.07-132.88C65.36,385.55,0,537.73,0,537.73Z"/>
    <path class="cls-16" d="M85.4,372.49l81.5-28.13,105.37,7,50.93,19.42-16.24,39.79s23.88,43.29,17.83,88.5c-6.05,45.2-14.07,97.27-30.63,102.36-16.55,5.09-48.53,9.36-76.49,9.14-25.83-.21-81.67-5.36-91.85-14.6-5.97-5.41-18.84-81.31-28.46-143.18-6.79-43.65-11.96-80.31-11.96-80.31Z"/>
    <path class="cls-12" d="M206.22,278.18s-45.98-67.06,10-114.68c43.93-37.36,138.01-8.81,118.01,69.38-14.67,57.36-128.01,45.29-128.01,45.29Z"/>
    <path class="cls-20" d="M214.07,255.37l-26.16,81.67-21.01,7.32s2.4,14.11,32.25,22.15c15.23,4.1,37.28,67.97,48.47,67.53,8.71-.34,5.65-63.6,12.87-66.36,16.06-6.14,11.78-16.32,11.78-16.32l-12.73-5.41.95-27.06-46.42-63.52Z"/>
    <path class="cls-22" d="M260.49,318.9l-.61,17.37s-30.56-1.18-35.96-36.4c-4.89-31.92,36.57,19.03,36.57,19.03Z"/>
    <path class="cls-20" d="M215.28,243.77s-9.11,52.11,18.46,71.31c27.57,19.2,68.44,6.37,91.68-52.21,23.24-58.57-4.78-101.55-51.89-102.82-47.11-1.27-56.86,67.81-58.26,83.72Z"/>
    <path class="cls-25" d="M259.97,217.52c-.72,5.99,24.34,11.75,25.06,6.47.72-5.28-24.34-12.46-25.06-6.47Z"/>
    <path class="cls-25" d="M305.8,232.2c-1.51,5.19,17.52,11.99,18.92,7.42,1.39-4.57-17.41-12.61-18.92-7.42Z"/>
    <path class="cls-22" d="M254.34,281.56c4.85-4.55,20.13,8.23,15.7,12.66-8.93,8.91-22.64-6.15-15.7-12.66Z"/>
    <path class="cls-12" d="M242,160.03c29.67-17.69,75.82,3.86,87.5,25.67,11.68,21.81,3.31,51.72,3.31,51.72,0,0,4.06-22.74-19.34-39-30.63-21.29-61.96-7.12-61.96-7.12,0,0-7.43,32.59-28.01,41.3-24.14,10.22-11.18-54.88,18.49-72.57Z"/>
    <ellipse class="cls-20" cx="214.36" cy="235.87" rx="16.87" ry="19.58" transform="translate(-65.27 82.92) rotate(-19.06)"/>
    <path class="cls-25" d="M291.03,250.37c-.55,2.2-1.01,4.4-1.3,6.6-.29,2.2-.41,4.41-.28,6.59.16,2.17.52,4.33,1.29,6.33.73,2.01,1.86,3.85,3.32,5.4l.82.87-1.05.45c-.99.43-1.98.84-2.98,1.24-1,.41-2,.81-3.01,1.19-2.01.78-4.04,1.52-6.1,2.19,1.86-1.12,3.74-2.16,5.65-3.17.95-.51,1.91-1,2.87-1.49.96-.49,1.92-.97,2.89-1.44l-.23,1.32c-1.76-1.62-3.05-3.71-3.89-5.92-.81-2.23-1.22-4.58-1.23-6.9-.04-2.33.28-4.64.84-6.86.55-2.23,1.37-4.37,2.39-6.39Z"/>
    <path class="cls-25" d="M258.04,241.08c.88-1.55,2.09-2.89,3.47-4.03,1.39-1.13,2.98-2.09,4.77-2.63,1.77-.54,3.76-.64,5.56-.07,1.81.53,3.33,1.71,4.38,3.13-1.56-.85-3.1-1.53-4.7-1.73-1.59-.24-3.17-.03-4.71.43-1.54.47-3.03,1.2-4.48,2.04-1.45.86-2.86,1.83-4.29,2.87Z"/>
    <path class="cls-25" d="M275.05,245.03c-.8,3.43-3.25,5.79-5.48,5.27-2.23-.52-3.4-3.72-2.6-7.15.8-3.43,3.25-5.79,5.48-5.27,2.23.52,3.4,3.72,2.6,7.15Z"/>
    <path class="cls-25" d="M297.92,249.91c.99-1.31,2.27-2.37,3.67-3.23,1.41-.85,2.99-1.51,4.7-1.76,1.69-.25,3.53-.06,5.09.72,1.58.74,2.79,2.04,3.52,3.49-1.32-.96-2.63-1.77-4.04-2.16-1.4-.42-2.85-.44-4.3-.24-1.45.21-2.9.66-4.33,1.22-1.43.57-2.85,1.24-4.31,1.96Z"/>
    <path class="cls-25" d="M313.17,255.85c-.81,3.41-3.27,5.74-5.49,5.21-2.22-.53-3.36-3.72-2.54-7.13.81-3.41,3.27-5.74,5.49-5.21,2.22.53,3.36,3.72,2.54,7.13Z"/>
    <path class="cls-25" d="M253.98,275.79c.25,2.55.9,5.01,1.95,7.24,1.06,2.23,2.54,4.23,4.43,5.76,1.87,1.56,4.1,2.68,6.46,3.46,2.36.79,4.86,1.25,7.4,1.61-2.56.26-5.17.11-7.72-.51l-.95-.24-.93-.32c-.63-.19-1.22-.49-1.84-.74-1.19-.58-2.32-1.3-3.36-2.14-2.06-1.71-3.64-3.97-4.55-6.45-.92-2.47-1.26-5.14-.9-7.68Z"/>
    <path class="cls-25" d="M210.85,236.19c1.39.09,2.78.23,4.15.54,1.37.3,2.72.8,3.93,1.51,1.21.71,2.24,1.64,3.13,2.63.87,1.01,1.61,2.09,2.29,3.18l-1.77.48c-.22-1.91-.73-3.8-1.36-5.65-.32-.92-.69-1.83-1.11-2.72-.22-.44-.42-.89-.65-1.32l-.73-1.29c-1.03-1.69-2.27-3.26-3.82-4.59-1.55-1.32-3.44-2.36-5.64-2.85,2.29.02,4.54.85,6.38,2.08,1.86,1.23,3.36,2.84,4.57,4.57l.86,1.33c.27.45.51.91.76,1.37.46.94.87,1.89,1.23,2.86.72,1.94,1.17,3.96,1.37,6.02h0c.04.47-.34.88-.85.93-.4.04-.76-.15-.92-.44-.59-1.07-1.22-2.11-1.96-3.07-.72-.98-1.57-1.86-2.58-2.59-1.98-1.51-4.65-2.26-7.29-2.98Z"/>
    <polygon class="cls-25" points="362.05 696.16 358.19 849 539.08 849 531.52 689.95 362.05 696.16"/>
    <path class="cls-25" d="M431.41,838.55c-.31,0-.57-.23-.62-.54l-10.92-81.3-7.59-5.1c-.29-.19-.36-.58-.17-.86.19-.29.58-.36.86-.17l7.82,5.25c.15.1.25.26.27.43l10.96,81.57c.05.34-.19.65-.53.7-.03,0-.06,0-.08,0Z"/>
    <path class="cls-25" d="M531.32,827.73c-.32,0-.6-.25-.62-.58l-7.94-116.29c-.02-.34.24-.64.58-.66.35-.03.64.24.66.58l7.94,116.29c.02.34-.24.64-.58.66-.01,0-.03,0-.04,0Z"/>
    <path class="cls-25" d="M507.77,747.7c-14.81,0-23.92-5.93-29.19-11.48-6.96-7.32-8.87-15.34-8.94-15.68-.08-.34.13-.67.47-.75.33-.08.67.13.75.47.02.08,1.93,8.07,8.67,15.15,8.91,9.34,22.22,12.85,38.51,10.16.34-.06.66.17.72.51.06.34-.17.66-.51.72-3.77.62-7.25.9-10.47.9Z"/>
    <path class="cls-19" d="M437.26,423.77s44.39-58.95,20.62-98.09c-16.51-27.19-43.8-10.47-43.8-10.47-23.03,6.67-60.27,3.97-64.59,36.31-6.55,48.94,68.46,93.1,87.77,72.26Z"/>
    <path class="cls-20" d="M329.65,569.42s-8.94,42.44-8.23,52.09c.67,9.17,52.8-18.95,52.8-18.95l-8.12-25.71-36.45-7.43Z"/>
    <path class="cls-14" d="M387.67,473.43s-34.78,16.77-39.75,23.52c-9.48,12.87-31.23,86.39-31.23,86.39l45.84,14.01-4.06,103.66c60.1,22.98,128.76,14.55,181.52-4.9l-20.95-220-61.15-18.49-70.21,15.81Z"/>
    <path class="cls-20" d="M511.53,728.95s34.18-88.49,33.91-112.58c-.27-24.09-7.31-88.77-7.31-88.77,0,0-18.13-5.56-30.85,1.82-12.72,7.38-20.57,22.81-20.57,22.81l16.78,65.77-18.67,113.4c.82,13.67,2.61,43.51,2.61,43.51l5.23,26.85s4.45,0,6.27-3.66c2.14-4.3-.24-21.6-.24-21.6l13.1,28.66s2.94.2,4.67-1.71c2.16-2.39,1.53-4.25,1.53-4.25,0,0,4.29,1.58,5.42-4.18,1.02-5.24-5.12-27.32-5.12-27.32l11.61,17.31s3.66-1.04,3.42-5.24c-.24-4.2-9.11-17.76-9.11-17.76l-12.67-33.05Z"/>
    <path class="cls-20" d="M457.88,457.62s-21.22,28.81-50.17,29.21c-22.71.32-20.04-13.4-20.04-13.4l8.87-6.68-.84-34.77,32.57-40.52s13.65,50.26,19.66,62.78l9.95,3.38Z"/>
    <path class="cls-22" d="M416.31,417.42s-.66,24.25-20.18,32.58l-.39-12.66s.55.03.55.03l20.01-19.95Z"/>
    <path class="cls-20" d="M343.64,351.81s-18.72,92.31,34.42,94.68c40.34,1.79,51.23-55.06,51.23-55.06,6.75-16.99-1.7-69.41-37.69-68.8-35.99.62-46.51,21.81-47.95,29.18Z"/>
    <path class="cls-22" d="M387.82,416.43c5.29,3.62-4.29,17.57-13.62,8.96-6.23-5.75,9.48-11.79,13.62-8.96Z"/>
    <path class="cls-19" d="M436.41,378.3c-3.49,12.49-14.46.81-21.72-15.02-6.03-13.16-4.63-22.44-4.63-22.44,0,0-27.18,10.78-55.83,11.92-19.77.79-40.93-9.68-32.11-27.08,8.82-17.4,39.9-28.52,67.21-25.02,39,5,46.85,26.33,51.38,40.93,5.04,16.23-4.31,36.71-4.31,36.71Z"/>
    <path class="cls-25" d="M345.49,380.65c.73-1.35,1.8-2.48,3.09-3.38,1.29-.87,2.92-1.52,4.69-1.34,1.78.17,3.33,1.31,4.2,2.64.91,1.33,1.4,2.82,1.54,4.33-.91-1.22-1.74-2.41-2.73-3.34-.96-.95-2.06-1.55-3.23-1.68-1.18-.13-2.47.19-3.74.73-1.28.54-2.53,1.26-3.83,2.03Z"/>
    <path class="cls-25" d="M357.69,384.79c-.52,2.87-2.49,4.91-4.4,4.57-1.91-.35-3.04-2.95-2.53-5.82.52-2.87,2.49-4.91,4.4-4.57,1.91.35,3.04,2.95,2.53,5.82Z"/>
    <path class="cls-25" d="M378.14,379.89c.97-1.42,2.27-2.58,3.78-3.46,1.5-.87,3.3-1.49,5.21-1.34.95.07,1.89.35,2.72.81.83.46,1.54,1.09,2.11,1.79,1.13,1.41,1.78,3.07,2.02,4.75-1-1.38-1.98-2.69-3.13-3.69-1.14-1.01-2.46-1.6-3.88-1.7-1.41-.11-2.92.22-4.4.76-1.48.56-2.94,1.28-4.44,2.08Z"/>
    <path class="cls-25" d="M392.18,384.85c-.57,3.14-2.72,5.38-4.81,5-2.09-.38-3.33-3.23-2.76-6.36.57-3.14,2.72-5.38,4.81-5,2.09.38,3.33,3.23,2.76,6.36Z"/>
    <path class="cls-25" d="M366.26,386.56c.05,1.8.02,3.6-.14,5.4-.16,1.8-.45,3.61-.98,5.38-.5,1.78-1.28,3.48-2.22,5.07-.96,1.58-2.09,3.05-3.36,4.37l-.07-1.15c1.18,1.13,2.34,2.29,3.47,3.48,1.13,1.18,2.24,2.39,3.3,3.67-1.38-.9-2.71-1.87-4.01-2.87-1.31-.99-2.58-2.01-3.84-3.06l-.59-.49.53-.66c1.09-1.36,2.12-2.75,2.99-4.23.89-1.47,1.59-3.04,2.2-4.65.59-1.62,1.05-3.31,1.46-5.03.41-1.72.79-3.47,1.26-5.21Z"/>
    <path class="cls-25" d="M377.27,360.58c-.63,5.42,21.77,10.34,22.4,5.56.63-4.78-21.77-10.98-22.4-5.56Z"/>
    <path class="cls-25" d="M336.64,365.58c1.8,5.16,24.1-.18,22.58-4.76-1.52-4.58-24.38-.4-22.58,4.76Z"/>
    <ellipse class="cls-20" cx="434.84" cy="385.2" rx="16" ry="13.79" transform="translate(-131.13 516.1) rotate(-54.56)"/>
    <path class="cls-25" d="M439.26,385.37c-.96-.43-1.98-.56-2.97-.55-.99.03-1.97.21-2.87.56-.91.34-1.75.84-2.47,1.48-.74.61-1.36,1.37-1.88,2.21-.25.41-.77.52-1.16.26-.32-.21-.45-.61-.35-.97v-.03c.42-1.55.91-3.1,1.62-4.56.35-.73.75-1.45,1.2-2.13.46-.68.98-1.32,1.55-1.91,1.15-1.17,2.61-2.07,4.17-2.43,1.56-.38,3.17-.23,4.61.26-1.52,0-3,.19-4.31.75-1.31.56-2.44,1.45-3.36,2.55-.47.54-.88,1.14-1.25,1.77-.39.62-.73,1.28-1.04,1.95-.61,1.36-1.14,2.77-1.56,4.24l-1.51-.74c.66-.94,1.45-1.79,2.37-2.46.93-.66,1.96-1.15,3.04-1.4,1.08-.25,2.19-.3,3.25-.11,1.06.18,2.1.59,2.91,1.28Z"/>
    <path class="cls-14" d="M539.99,527.76s4.99-4.48,4.8-12.37c-.18-7.07-4.8-7.04-4.8-7.04,0,0,2.64-6.92,0-11.73-2.69-4.9-7.75-3.19-7.75-3.19l-13.2-17.33s-31,36.98-35.2,58.9c-2.65,13.86,3.53,20.04,3.53,20.04l52.62-27.29Z"/>
    <path class="cls-25" d="M487.37,555.67c-.08,0-.16-.02-.24-.05-.25-.1-6.19-2.6-7.65-7.84-1.42-5.11-.06-10.38,0-10.6.09-.33.43-.53.76-.44.33.09.53.43.44.76-.01.05-1.33,5.18,0,9.95,1.3,4.65,6.87,7,6.92,7.03.32.13.47.5.34.81-.1.24-.33.38-.58.38Z"/>
    <path class="cls-25" d="M493.11,534.15c-.15,0-.3-.05-.42-.16-.25-.23-.27-.63-.04-.88,11.28-12.35,26.02-20.28,43.81-23.59.34-.06.66.16.73.5.06.34-.16.66-.5.73-17.52,3.26-32.02,11.07-43.12,23.21-.12.13-.29.2-.46.2Z"/>
    <path class="cls-25" d="M485.57,524.6c-.14,0-.28-.05-.4-.15-.26-.22-.3-.61-.08-.88,8.81-10.5,25.67-23.85,38.65-28,.33-.1.68.08.78.4.1.33-.08.68-.4.78-12.76,4.09-29.39,17.25-38.08,27.62-.12.15-.3.22-.48.22Z"/>
    <path class="cls-20" d="M470.24,461.18s4.57-27.13,11.71-27.13,3.71,23.7,3.71,23.7c0,0,8.85-10,12.85-8.85,4,1.14,4.28,5.71,4.28,5.71,0,0,6.01-4.57,9.43-3.43,3.42,1.14,2.85,8.28,2.85,8.28,0,0,6.85-3.71,9.42-1.71,2.57,2,2.28,8.28,2.28,8.28,0,0,4.16-2.08,7.14,0,5.71,4-4.27,34.56-10.55,31.7-6.28-2.86-2.3-13.14-2.3-13.14,0,0-6.64,11.99-10.64,8.42-4-3.57-1.07-15.85-1.07-15.85,0,0-6.28,13.99-10.28,11.14-4-2.86-1.14-16.28-1.14-16.28,0,0-5.43,16.28-10.28,11.14-4.85-5.14-2.28-17.19-2.28-17.19l-15.14-4.8Z"/>
    <path class="cls-25" d="M369.97,425.36c2.21-.07,4.36-.38,6.42-.94,2.05-.57,4-1.41,5.71-2.6,1.72-1.18,3.17-2.71,4.36-4.46,1.17-1.77,2.08-3.74,2.88-5.81-.15,2.21-.77,4.42-1.82,6.44-1.05,2.02-2.63,3.8-4.52,5.13-1.91,1.3-4.1,2.15-6.34,2.5-2.23.36-4.53.32-6.68-.26Z"/>
    <path class="cls-22" d="M497.69,473.18c.11-1.63.37-3.23.69-4.8.31-1.58.68-3.14,1.11-4.69.42-1.55.91-3.08,1.44-4.6.54-1.52,1.13-3.02,1.87-4.48-.11,1.63-.37,3.23-.68,4.81-.32,1.58-.68,3.14-1.11,4.69-.42,1.55-.91,3.08-1.45,4.6-.54,1.52-1.13,3.02-1.87,4.48Z"/>
    <path class="cls-22" d="M509.15,477.64c.18-1.62.52-3.18.9-4.73.38-1.55.82-3.08,1.32-4.6.49-1.52,1.04-3.01,1.65-4.49.6-1.48,1.26-2.94,2.07-4.35-.18,1.62-.51,3.18-.9,4.74-.39,1.55-.82,3.08-1.32,4.6-.49,1.52-1.05,3.01-1.65,4.49-.6,1.48-1.26,2.94-2.06,4.35Z"/>
    <path class="cls-22" d="M521.08,484.59c.16-1.64.48-3.24.84-4.82.37-1.58.78-3.15,1.26-4.69.47-1.55,1.01-3.08,1.59-4.59.59-1.51,1.23-3.01,2.01-4.46-.16,1.64-.48,3.24-.84,4.82-.37,1.58-.78,3.15-1.26,4.69-.47,1.55-1.01,3.08-1.6,4.59-.59,1.51-1.23,3.01-2.01,4.46Z"/>
    <path class="cls-22" d="M124.6,670.52c-.69,2.27-2.02,4.28-3.42,6.16-1.43,1.87-3.02,3.61-4.73,5.2-.84.81-1.74,1.56-2.63,2.32-.91.74-1.84,1.44-2.78,2.13-.96.67-1.93,1.31-2.92,1.93-1.01.59-2.02,1.18-3.08,1.69.78-.88,1.62-1.69,2.45-2.5.83-.8,1.66-1.62,2.51-2.39.83-.8,1.68-1.57,2.52-2.35.83-.79,1.69-1.55,2.51-2.35,1.68-1.56,3.32-3.14,4.93-4.75,1.61-1.62,3.21-3.25,4.65-5.09Z"/>
    <path class="cls-22" d="M148.15,710.82c-1.81-1.46-3.45-3.06-5.05-4.69-1.59-1.64-3.12-3.33-4.6-5.07-1.48-1.74-2.9-3.52-4.26-5.36-1.35-1.85-2.66-3.73-3.8-5.75,1.81,1.46,3.45,3.05,5.05,4.69,1.59,1.64,3.12,3.33,4.6,5.07,1.47,1.74,2.9,3.52,4.26,5.36,1.35,1.85,2.66,3.73,3.8,5.75Z"/>
    <path class="cls-22" d="M127.75,708.13c-1.26-.75-2.37-1.65-3.43-2.58-1.05-.94-2.05-1.94-2.99-2.98-.94-1.04-1.83-2.13-2.65-3.28-.82-1.15-1.59-2.34-2.21-3.68,1.26.75,2.37,1.65,3.43,2.58,1.05.94,2.05,1.94,2.98,2.98.94,1.04,1.83,2.13,2.65,3.28.82,1.15,1.59,2.34,2.21,3.67Z"/>
    <path class="cls-22" d="M147.66,689.54c-1.23-.38-2.33-.93-3.39-1.53-1.06-.6-2.07-1.27-3.04-2-.97-.72-1.9-1.51-2.77-2.36-.87-.85-1.71-1.76-2.41-2.83,1.23.38,2.33.93,3.4,1.52,1.06.6,2.07,1.27,3.04,2,.97.73,1.89,1.51,2.77,2.36.87.86,1.71,1.76,2.42,2.83Z"/>
    <path class="cls-20" d="M337.41,608.24l100.68-67.39s30.82-27.62,34.1-28.15c3.28-.53,30.19-2.49,30.19-2.49,0,0,1.66,3.66-4.84,6.37-6.5,2.71-14.52,2.62-14.52,2.62l28.51,3.31s-.03,3.92-2.1,5.36c-1.7,1.19-3.69.89-3.69.89,0,0,2.64,3.68-.18,5.49-2.29,1.47-4.74,1.14-4.74,1.14,0,0,1.43,3.62-2.55,5.36-3.81,1.66-16.05-1.8-19.57,1.86-3.52,3.65-8.66,10.69-17.32,13.67-8.66,2.98-12.18,2.71-12.18,2.71,0,0-65.5,85.52-93.64,89.86-28.15,4.33-34.64-19.76-34.1-28.69.54-8.93,15.97-11.91,15.97-11.91Z"/>
    <path class="cls-20" d="M484.81,731.39l-10.14,39.15s3.76,1.14,5.92-1.14c2.16-2.28,5.82-11.37,5.82-11.37l-1.6-26.64Z"/>
    <path class="cls-22" d="M505.74,528.77c-1.92-.01-3.81-.14-5.71-.32-.95-.08-1.89-.2-2.83-.3l-2.82-.36c-1.88-.26-3.75-.58-5.62-.93-1.87-.36-3.73-.76-5.57-1.28,1.92,0,3.81.14,5.71.32,1.89.18,3.78.39,5.66.66l2.81.43c.94.17,1.87.31,2.81.5,1.87.36,3.73.76,5.57,1.28Z"/>
    <path class="cls-22" d="M500.81,535.4c-1.77-.02-3.52-.17-5.26-.35-.87-.08-1.74-.21-2.61-.31l-2.6-.38c-1.73-.27-3.45-.6-5.16-.97-1.71-.37-3.42-.78-5.11-1.31,1.77.02,3.52.16,5.26.35,1.74.19,3.48.42,5.2.7l2.59.45c.86.17,1.72.32,2.57.52,1.71.37,3.42.78,5.11,1.31Z"/>
    <path class="cls-25" d="M111.87,540.32c-.3,0-.56-.21-.61-.52l-10.01-58.54c-.06-.34.17-.66.51-.72.34-.06.66.17.72.51l10.01,58.54c.06.34-.17.66-.51.72-.04,0-.07,0-.11,0Z"/>
    <path class="cls-25" d="M321.41,523.68s-.1,0-.15-.02c-.33-.08-.54-.42-.46-.75.08-.34,8.17-34.47,3.44-54.22-.08-.33.13-.67.46-.75.33-.08.67.13.75.46,4.79,20.04-3.36,54.45-3.44,54.8-.07.29-.32.48-.6.48Z"/>
    <path class="cls-25" d="M200.63,598.02s-.05,0-.08,0c-15.04-1.96-28.02-5.71-38.57-11.17-8.46-4.38-15.4-9.85-20.6-16.26-8.89-10.96-9.65-20.74-9.68-21.15-.02-.34.24-.64.58-.66.34-.02.64.24.66.58,0,.1.78,9.86,9.46,20.52,8.03,9.86,24.66,22.53,58.31,26.91.34.04.58.36.54.7-.04.31-.31.54-.62.54Z"/>
    <path class="cls-25" d="M209.29,589.71s-.03,0-.05,0c-16.93-1.33-29.38-7.83-36.85-13.04-8.1-5.66-12.13-10.93-12.3-11.15-.21-.27-.15-.66.12-.87.27-.21.66-.15.87.12.16.21,16.42,21.19,48.26,23.7.34.03.6.33.57.67-.03.33-.3.57-.62.57Z"/>
    <path class="cls-25" d="M366.28,586.86s-.03,0-.04,0c-.34-.02-.6-.32-.58-.66l3.69-57.47c.02-.34.32-.6.66-.58.34.02.6.32.58.66l-3.69,57.47c-.02.33-.29.58-.62.58Z"/>
    <path class="cls-25" d="M428.34,696.24c-.32,0-.59-.24-.62-.57-.03-.34.22-.64.56-.68.12-.01,12.63-1.21,26.42-7.09,12.67-5.4,29.05-15.98,35.15-35.7.1-.33.45-.51.78-.41.33.1.51.45.41.78-6.24,20.19-22.96,30.99-35.89,36.49-13.96,5.95-26.63,7.16-26.76,7.17-.02,0-.04,0-.06,0Z"/>
    <path class="cls-25" d="M422.73,690.57c-.3,0-.56-.21-.61-.51-.06-.34.17-.66.51-.72.28-.05,28.56-5.22,36.2-24.2.13-.32.49-.47.81-.35.32.13.47.49.34.81-4.14,10.28-14.03,16.52-21.6,19.95-8.16,3.69-15.46,5-15.54,5.01-.04,0-.07,0-.11,0Z"/>
    <path class="cls-22" d="M506.69,773.26c1.18,2.06,2.24,4.17,3.27,6.29.52,1.06,1,2.13,1.51,3.2l1.44,3.23,1.38,3.25c.44,1.09.9,2.18,1.32,3.28.86,2.2,1.67,4.41,2.38,6.68-1.18-2.06-2.24-4.16-3.27-6.29-.52-1.06-1-2.13-1.51-3.2l-1.44-3.23-1.38-3.26c-.44-1.09-.9-2.18-1.32-3.28-.86-2.2-1.67-4.41-2.38-6.68Z"/>
    <path class="cls-22" d="M498.68,776.49c1.1,1.78,2.09,3.62,3.03,5.47.48.92.93,1.86,1.39,2.79l1.33,2.82,1.27,2.85c.4.96.82,1.91,1.2,2.88.78,1.93,1.52,3.88,2.15,5.88-1.1-1.78-2.09-3.62-3.04-5.47-.49-.92-.93-1.86-1.39-2.79l-1.33-2.82-1.27-2.85c-.4-.96-.82-1.91-1.2-2.88-.78-1.93-1.52-3.88-2.15-5.88Z"/>
    <path class="cls-22" d="M486.41,758.03c-.26-.91-.39-1.82-.49-2.73-.09-.91-.13-1.82-.13-2.73,0-.91.04-1.82.13-2.73.1-.91.23-1.82.49-2.73.26.91.39,1.82.49,2.73.09.91.13,1.82.13,2.73,0,.91-.04,1.82-.13,2.73-.1.91-.23,1.82-.49,2.73Z"/>
    <path class="cls-22" d="M529.89,784.99c-1.18-1.3-2.26-2.67-3.3-4.06-.53-.69-1.03-1.4-1.54-2.11l-1.48-2.14c-.97-1.44-1.9-2.91-2.79-4.4-.89-1.49-1.75-3.01-2.5-4.6,1.18,1.3,2.26,2.66,3.31,4.06,1.04,1.39,2.05,2.81,3.02,4.25l1.42,2.18c.46.74.93,1.47,1.37,2.22.89,1.49,1.75,3.01,2.5,4.6Z"/>
  </g>
  <path class="cls-11" d="M648.13,569.03l4.73,44.09s-.28,3.07-3.55,3.72c-3.27.65-4.38-4.08-4.38-4.08,0,0-16.77,2.1-31.27,2.75-14.5.64-51.35-33.04-51.35-33.04,0,0-35.69,4.99-42.52,0-5.71-4.17-4.31-7.83-4.31-7.83l41.39-7.09s-34.99-1.91-41.39-5.72c-6.86-4.08-5.38-12.71-5.38-12.71,0,0-4.02-2.92-4.64-6.8-.62-3.88.2-7.07.2-7.07l14.15-.1s-4.34-1.12-6.04-6.03c-1.2-3.47-.78-7.47-.78-7.47,0,0,59.53,3.3,66.82,6.76,7.3,3.47,15.42,12.91,15.42,12.91,0,0-3.93-6.61-1.25-13.58,2.57-6.69,7.23-6.09,7.23-6.09,0,0,9.98,31,13.16,37.94,3.17,6.94,8.71,13.33,8.71,13.33l16.35-4.22s.69-4.04,4.29-4.29c4.51-.32,4.43,4.62,4.43,4.62Z"/>
  <g>
    <path class="cls-1" d="M942.69,280.13s35.3,17.85,34.62,66.17c-.68,48.32-68.44,208.21-98.13,225.62-29.68,17.42-201.4,66.61-201.4,66.61l-20.64-92.61,162.35-54.3s70.6-195.26,123.2-211.49Z"/>
    <path class="cls-25" d="M700.32,619.22c-.21,0-.41-.16-.46-.4l-16.5-67.4c-.07-.29.08-.58.34-.66.26-.08.52.09.59.38l16.5,67.4c.07.29-.08.58-.34.66-.04.01-.09.02-.13.02Z"/>
    <path class="cls-25" d="M683.82,616.33c-3.56,0-6.45-3.23-6.45-7.21s2.89-7.21,6.45-7.21,6.45,3.23,6.45,7.21-2.89,7.21-6.45,7.21ZM683.82,602.98c-3.03,0-5.49,2.75-5.49,6.13s2.46,6.13,5.49,6.13,5.49-2.75,5.49-6.13-2.46-6.13-5.49-6.13Z"/>
    <path class="cls-25" d="M663.09,544.47c-.21,0-.4-.15-.46-.38-.08-.28.07-.59.32-.67l156.19-52.24c2.46-6.4,53.07-137.6,81.76-170.49.19-.21.49-.22.68,0,.19.21.19.55,0,.76-29.14,33.4-81.13,169.03-81.66,170.4-.06.15-.17.26-.31.3l-156.41,52.31s-.09.02-.14.02Z"/>
    <path class="cls-25" d="M700.85,632.35c-.21,0-.41-.16-.47-.41-.07-.29.09-.58.35-.66,1.57-.45,157.36-45.02,178.2-59.83,20.78-14.77,37.54-53.73,37.71-54.12.11-.27.4-.38.64-.25.24.13.34.45.23.72-.17.39-17.05,39.63-38.06,54.56-20.96,14.9-176.9,59.51-178.47,59.96-.04.01-.08.02-.12.02Z"/>
  </g>
  <path class="cls-15" d="M519.79,535.14c3.85-.29,7.7-.4,11.55-.45,1.92-.04,3.85-.02,5.77-.03l5.77.07,5.77.17c1.92.09,3.84.15,5.76.27,3.84.22,7.68.49,11.52.95-3.85.29-7.7.41-11.55.46-1.92.04-3.85.02-5.77.03l-5.77-.08-5.77-.17c-1.92-.09-3.84-.15-5.76-.28-3.84-.22-7.68-.49-11.52-.95Z"/>
  <path class="cls-15" d="M510.09,549.11c4.35-.18,8.69-.19,13.03-.13,2.17.01,4.34.09,6.5.13l6.5.24,6.5.33c2.16.15,4.33.26,6.49.44,4.33.32,8.65.71,12.96,1.27-4.35.19-8.69.19-13.03.13-2.17-.01-4.34-.09-6.5-.14l-6.5-.24-6.5-.34c-2.16-.14-4.33-.26-6.49-.44-4.33-.32-8.65-.71-12.96-1.27Z"/>
  <path class="cls-15" d="M587.83,543.07c-1.25.72-2.39,1.57-3.43,2.52-1.05.93-2,1.97-2.86,3.06-1.72,2.19-3.04,4.65-4,7.25-.98,2.6-1.59,5.34-2,8.13-.4,2.79-.55,5.64-.66,8.53-.64-2.82-.89-5.74-.74-8.66.15-2.92.65-5.86,1.71-8.63,1.02-2.78,2.59-5.38,4.63-7.53.51-.54,1.04-1.05,1.61-1.53.58-.46,1.16-.92,1.78-1.31,1.24-.79,2.56-1.47,3.97-1.82Z"/>
  <path class="cls-15" d="M639.65,573.66c.76,2.7,1.34,5.43,1.86,8.16.53,2.73.97,5.48,1.37,8.24.39,2.75.73,5.52.97,8.29.26,2.77.45,5.55.47,8.36-.76-2.7-1.35-5.43-1.87-8.16-.53-2.73-.97-5.48-1.37-8.24-.39-2.75-.72-5.52-.97-8.29-.26-2.77-.45-5.55-.47-8.36Z"/>
  <path class="cls-5" d="M852.61,163.79c-6.47,5.14-13.25,10.99-15.75,18.84-1.84,5.77-.32,10.51,2.18,15.85-2.29-.02-4.4.34-6.44,1.33-8.68,4.21-13.16,14.5-10.15,23.34,1.19,3.49,3.47,6.75,6.75,8.84,9.01,5.74,23.36,1.01,31.92-2.87,13.79-6.26,22.79-18.78,17.48-33.42-2.04-5.64-5.8-10.73-7.42-16.47-.67-2.37-.96-4.83-1.93-7.12-2.03-4.81-11.28-12.57-16.63-8.32Z"/>
</svg>