<svg width="32" height="32" viewBox="0 0 32 32" fill="none" xmlns="http://www.w3.org/2000/svg">
<path d="M0 16C0 7.16344 7.16344 0 16 0C24.8366 0 32 7.16344 32 16C32 24.8366 24.8366 32 16 32C7.16344 32 0 24.8366 0 16Z" fill="#007AFF"/>
<path d="M18.0091 10.809C18.8877 9.93033 20.3124 9.93033 21.191 10.809C22.0697 11.6877 22.0697 13.1123 21.191 13.991L20.0891 15.0929C19.8255 15.3565 19.8255 15.7839 20.0891 16.0475C20.3527 16.3111 20.7801 16.3111 21.0437 16.0475L22.1456 14.9456C23.5515 13.5397 23.5515 11.2603 22.1456 9.85442C20.7397 8.44853 18.4604 8.44853 17.0545 9.85442L14.3545 12.5544C12.9486 13.9603 12.9486 16.2397 14.3545 17.6456C14.4201 17.7112 14.4877 17.7739 14.5572 17.8335C14.84 18.0763 15.2662 18.0439 15.509 17.7611C15.7519 17.4782 15.7194 17.0521 15.4366 16.8092C15.3931 16.7718 15.3505 16.7324 15.3091 16.691C14.4304 15.8123 14.4304 14.3877 15.3091 13.509L18.0091 10.809Z" fill="white"/>
<path d="M17.4429 14.1665C17.1601 13.9237 16.7339 13.9561 16.4911 14.2389C16.2482 14.5218 16.2807 14.9479 16.5635 15.1908C16.607 15.2282 16.6496 15.2676 16.691 15.309C17.5697 16.1877 17.5697 17.6123 16.691 18.491L13.991 21.191C13.1124 22.0697 11.6877 22.0697 10.8091 21.191C9.93038 20.3123 9.93038 18.8877 10.8091 18.009L11.911 16.9071C12.1746 16.6435 12.1746 16.2161 11.911 15.9525C11.6474 15.6889 11.22 15.6889 10.9564 15.9525L9.85446 17.0544C8.44858 18.4603 8.44858 20.7397 9.85446 22.1456C11.2604 23.5515 13.5397 23.5515 14.9456 22.1456L17.6456 19.4456C19.0515 18.0397 19.0515 15.7603 17.6456 14.3544C17.58 14.2888 17.5124 14.2261 17.4429 14.1665Z" fill="white"/>
</svg>
