<svg width="28" height="28" viewBox="0 0 28 28" fill="none" xmlns="http://www.w3.org/2000/svg">
<path d="M0 14C0 6.26801 6.26801 0 14 0C21.732 0 28 6.26801 28 14C28 21.732 21.732 28 14 28C6.26801 28 0 21.732 0 14Z" fill="#007AFF"/>
<path d="M0.5 14C0.5 6.54416 6.54416 0.5 14 0.5C21.4558 0.5 27.5 6.54416 27.5 14C27.5 21.4558 21.4558 27.5 14 27.5C6.54416 27.5 0.5 21.4558 0.5 14Z" stroke="black" stroke-opacity="0.08"/>
<path d="M5.25 11.2242V18.375C5.25 19.7557 6.36929 20.875 7.75 20.875H20.25C21.6307 20.875 22.75 19.7557 22.75 18.375V11.2242L15.3102 15.8026C14.5067 16.297 13.4933 16.297 12.6898 15.8026L5.25 11.2242Z" fill="white"/>
<path d="M22.75 9.75652V9.625C22.75 8.24429 21.6307 7.125 20.25 7.125H7.75C6.36929 7.125 5.25 8.24429 5.25 9.625V9.75652L13.3449 14.738C13.7466 14.9852 14.2534 14.9852 14.6551 14.738L22.75 9.75652Z" fill="white"/>
</svg>
