<svg width="28" height="28" viewBox="0 0 28 28" fill="none" xmlns="http://www.w3.org/2000/svg">
<rect width="28" height="28" rx="14" fill="#007AFF"/>
<path d="M14.0022 7.11414C16.2467 7.11414 16.5102 7.12415 17.3973 7.16417C18.2178 7.20085 18.6613 7.33759 18.9581 7.45432C19.3517 7.60773 19.6318 7.78783 19.9253 8.08132C20.2188 8.37481 20.4022 8.65496 20.5523 9.0485C20.6657 9.34532 20.8058 9.78889 20.8425 10.6093C20.8825 11.4965 20.8925 11.7599 20.8925 14.0045C20.8925 16.249 20.8825 16.5124 20.8425 17.3996C20.8058 18.22 20.6691 18.6636 20.5523 18.9604C20.3989 19.3539 20.2188 19.6341 19.9253 19.9276C19.6318 20.2211 19.3517 20.4045 18.9581 20.5546C18.6613 20.668 18.2178 20.8081 17.3973 20.8447C16.5102 20.8848 16.2467 20.8948 14.0022 20.8948C11.7577 20.8948 11.4942 20.8848 10.6071 20.8447C9.78662 20.8081 9.34306 20.6713 9.04623 20.5546C8.65269 20.4012 8.37254 20.2211 8.07905 19.9276C7.78556 19.6341 7.60213 19.3539 7.45205 18.9604C7.33866 18.6636 7.19859 18.22 7.1619 17.3996C7.12188 16.5124 7.11187 16.249 7.11187 14.0045C7.11187 11.7599 7.12188 11.4965 7.1619 10.6093C7.19859 9.78889 7.33533 9.34532 7.45205 9.0485C7.60547 8.65496 7.78556 8.37481 8.07905 8.08132C8.37254 7.78783 8.65269 7.6044 9.04623 7.45432C9.34306 7.34093 9.78662 7.20085 10.6071 7.16417C11.4942 7.12081 11.761 7.11414 14.0022 7.11414ZM14.0022 5.60001C11.721 5.60001 11.4342 5.61001 10.537 5.65003C9.64322 5.69005 9.03289 5.83346 8.49928 6.04024C7.94565 6.25369 7.47874 6.54384 7.01182 7.01075C6.54491 7.47767 6.25809 7.94792 6.04131 8.49821C5.83453 9.03182 5.69112 9.64214 5.6511 10.5393C5.61108 11.4331 5.60107 11.7199 5.60107 14.0011C5.60107 16.2823 5.61108 16.5691 5.6511 17.4663C5.69112 18.3601 5.83453 18.9704 6.04131 19.5074C6.25475 20.061 6.54491 20.5279 7.01182 20.9948C7.47874 21.4617 7.94898 21.7485 8.49928 21.9653C9.03289 22.1721 9.64322 22.3155 10.5404 22.3555C11.4375 22.3956 11.721 22.4056 14.0055 22.4056C16.2901 22.4056 16.5736 22.3956 17.4707 22.3555C18.3645 22.3155 18.9748 22.1721 19.5118 21.9653C20.0654 21.7519 20.5323 21.4617 20.9992 20.9948C21.4661 20.5279 21.753 20.0577 21.9697 19.5074C22.1765 18.9737 22.3199 18.3634 22.3599 17.4663C22.4 16.5691 22.41 16.2857 22.41 14.0011C22.41 11.7166 22.4 11.4331 22.3599 10.536C22.3199 9.64214 22.1765 9.03182 21.9697 8.49487C21.7563 7.94124 21.4661 7.47433 20.9992 7.00742C20.5323 6.5405 20.0621 6.25369 19.5118 6.0369C18.9782 5.83013 18.3678 5.68672 17.4707 5.6467C16.5702 5.61001 16.2834 5.60001 14.0022 5.60001Z" fill="white"/>
<path d="M14.0022 7.11414C16.2467 7.11414 16.5102 7.12415 17.3973 7.16417C18.2178 7.20085 18.6613 7.33759 18.9581 7.45432C19.3517 7.60773 19.6318 7.78783 19.9253 8.08132C20.2188 8.37481 20.4022 8.65496 20.5523 9.0485C20.6657 9.34532 20.8058 9.78889 20.8425 10.6093C20.8825 11.4965 20.8925 11.7599 20.8925 14.0045C20.8925 16.249 20.8825 16.5124 20.8425 17.3996C20.8058 18.22 20.6691 18.6636 20.5523 18.9604C20.3989 19.3539 20.2188 19.6341 19.9253 19.9276C19.6318 20.2211 19.3517 20.4045 18.9581 20.5546C18.6613 20.668 18.2178 20.8081 17.3973 20.8447C16.5102 20.8848 16.2467 20.8948 14.0022 20.8948C11.7577 20.8948 11.4942 20.8848 10.6071 20.8447C9.78662 20.8081 9.34306 20.6713 9.04623 20.5546C8.65269 20.4012 8.37254 20.2211 8.07905 19.9276C7.78556 19.6341 7.60213 19.3539 7.45205 18.9604C7.33866 18.6636 7.19859 18.22 7.1619 17.3996C7.12188 16.5124 7.11187 16.249 7.11187 14.0045C7.11187 11.7599 7.12188 11.4965 7.1619 10.6093C7.19859 9.78889 7.33533 9.34532 7.45205 9.0485C7.60547 8.65496 7.78556 8.37481 8.07905 8.08132C8.37254 7.78783 8.65269 7.6044 9.04623 7.45432C9.34306 7.34093 9.78662 7.20085 10.6071 7.16417C11.4942 7.12081 11.761 7.11414 14.0022 7.11414Z" fill="white"/>
<path d="M14.0023 9.68881C11.621 9.68881 9.68665 11.6198 9.68665 14.0044C9.68665 16.389 11.6177 18.32 14.0023 18.32C16.3869 18.32 18.3179 16.389 18.3179 14.0044C18.3179 11.6198 16.3869 9.68881 14.0023 9.68881ZM14.0023 16.8026C12.4548 16.8026 11.2008 15.5486 11.2008 14.0011C11.2008 12.4536 12.4548 11.1996 14.0023 11.1996C15.5497 11.1996 16.8037 12.4536 16.8037 14.0011C16.8037 15.5486 15.5497 16.8026 14.0023 16.8026Z" fill="#007AFF"/>
<path d="M18.4879 10.5226C19.0442 10.5226 19.4951 10.0717 19.4951 9.51541C19.4951 8.95915 19.0442 8.50821 18.4879 8.50821C17.9317 8.50821 17.4807 8.95915 17.4807 9.51541C17.4807 10.0717 17.9317 10.5226 18.4879 10.5226Z" fill="#007AFF"/>
</svg>
